<mxfile host="app.diagrams.net" modified="2021-12-08T04:25:35.341Z" agent="5.0 (Windows NT 10.0; Win64; x64) AppleWebKit/537.36 (KHTML, like Gecko) Chrome/96.0.4664.45 Safari/537.36" etag="7dB3hq_1rgjrkwO09DfU" version="15.9.1" type="github" pages="7">
  <diagram id="zzj429XeANII-zIA5jK8" name="Client&amp;Server 관계도">
    <mxGraphModel dx="2062" dy="1122" grid="1" gridSize="10" guides="1" tooltips="1" connect="1" arrows="1" fold="1" page="1" pageScale="1" pageWidth="1654" pageHeight="2336" math="0" shadow="0">
      <root>
        <mxCell id="0" />
        <mxCell id="1" parent="0" />
        <mxCell id="DrzzF1mg_1247-aJoc_v-1" value="&lt;h1&gt;Client &amp;amp; Server Sequence&lt;/h1&gt;" style="rounded=0;whiteSpace=wrap;html=1;" parent="1" vertex="1">
          <mxGeometry x="668" y="10" width="318" height="40" as="geometry" />
        </mxCell>
        <mxCell id="DrzzF1mg_1247-aJoc_v-6" value="A" style="edgeStyle=orthogonalEdgeStyle;rounded=0;orthogonalLoop=1;jettySize=auto;html=1;exitX=1;exitY=0.25;exitDx=0;exitDy=0;entryX=0;entryY=0.25;entryDx=0;entryDy=0;fontSize=24;" parent="1" source="DrzzF1mg_1247-aJoc_v-2" target="DrzzF1mg_1247-aJoc_v-4" edge="1">
          <mxGeometry relative="1" as="geometry" />
        </mxCell>
        <mxCell id="DrzzF1mg_1247-aJoc_v-11" value="D" style="edgeStyle=orthogonalEdgeStyle;rounded=0;orthogonalLoop=1;jettySize=auto;html=1;exitX=0.75;exitY=1;exitDx=0;exitDy=0;entryX=0.75;entryY=0;entryDx=0;entryDy=0;fontSize=24;" parent="1" source="DrzzF1mg_1247-aJoc_v-2" target="DrzzF1mg_1247-aJoc_v-3" edge="1">
          <mxGeometry relative="1" as="geometry" />
        </mxCell>
        <mxCell id="DrzzF1mg_1247-aJoc_v-2" value="Login Server" style="whiteSpace=wrap;html=1;aspect=fixed;fontStyle=1;fontSize=24;rounded=1;fillColor=#f8cecc;strokeColor=#b85450;gradientColor=#ffffff;" parent="1" vertex="1">
          <mxGeometry x="120" y="158" width="140" height="140" as="geometry" />
        </mxCell>
        <mxCell id="DrzzF1mg_1247-aJoc_v-12" value="C" style="edgeStyle=orthogonalEdgeStyle;rounded=0;orthogonalLoop=1;jettySize=auto;html=1;exitX=0.25;exitY=0;exitDx=0;exitDy=0;entryX=0.25;entryY=1;entryDx=0;entryDy=0;fontSize=24;" parent="1" source="DrzzF1mg_1247-aJoc_v-3" target="DrzzF1mg_1247-aJoc_v-2" edge="1">
          <mxGeometry relative="1" as="geometry" />
        </mxCell>
        <mxCell id="DrzzF1mg_1247-aJoc_v-18" value="E" style="edgeStyle=orthogonalEdgeStyle;rounded=0;orthogonalLoop=1;jettySize=auto;html=1;exitX=0.25;exitY=1;exitDx=0;exitDy=0;entryX=0.25;entryY=0;entryDx=0;entryDy=0;fontSize=24;" parent="1" source="DrzzF1mg_1247-aJoc_v-3" target="DrzzF1mg_1247-aJoc_v-10" edge="1">
          <mxGeometry relative="1" as="geometry" />
        </mxCell>
        <mxCell id="DrzzF1mg_1247-aJoc_v-3" value="Game Launcher" style="whiteSpace=wrap;html=1;aspect=fixed;fontStyle=1;fontSize=24;fillColor=#d5e8d4;strokeColor=#82b366;gradientColor=#ffffff;rounded=1;shadow=0;sketch=0;glass=0;" parent="1" vertex="1">
          <mxGeometry x="120" y="485" width="140" height="140" as="geometry" />
        </mxCell>
        <mxCell id="DrzzF1mg_1247-aJoc_v-7" value="B" style="edgeStyle=orthogonalEdgeStyle;rounded=0;orthogonalLoop=1;jettySize=auto;html=1;exitX=0;exitY=0.75;exitDx=0;exitDy=0;entryX=1;entryY=0.75;entryDx=0;entryDy=0;fontSize=24;" parent="1" source="DrzzF1mg_1247-aJoc_v-4" target="DrzzF1mg_1247-aJoc_v-2" edge="1">
          <mxGeometry relative="1" as="geometry" />
        </mxCell>
        <mxCell id="DrzzF1mg_1247-aJoc_v-28" value="K" style="edgeStyle=orthogonalEdgeStyle;rounded=0;orthogonalLoop=1;jettySize=auto;html=1;exitX=1;exitY=0.25;exitDx=0;exitDy=0;entryX=1;entryY=0.75;entryDx=0;entryDy=0;fontSize=24;" parent="1" source="DrzzF1mg_1247-aJoc_v-4" target="DrzzF1mg_1247-aJoc_v-5" edge="1">
          <mxGeometry relative="1" as="geometry">
            <Array as="points">
              <mxPoint x="660" y="193" />
              <mxPoint x="660" y="927" />
            </Array>
          </mxGeometry>
        </mxCell>
        <mxCell id="DrzzF1mg_1247-aJoc_v-31" value="G" style="edgeStyle=orthogonalEdgeStyle;rounded=0;orthogonalLoop=1;jettySize=auto;html=1;exitX=0.75;exitY=1;exitDx=0;exitDy=0;entryX=0.75;entryY=0;entryDx=0;entryDy=0;fontSize=24;" parent="1" source="DrzzF1mg_1247-aJoc_v-4" target="DrzzF1mg_1247-aJoc_v-10" edge="1">
          <mxGeometry relative="1" as="geometry">
            <Array as="points">
              <mxPoint x="475" y="742" />
              <mxPoint x="225" y="742" />
            </Array>
          </mxGeometry>
        </mxCell>
        <mxCell id="DrzzF1mg_1247-aJoc_v-4" value="Lobby Server" style="whiteSpace=wrap;html=1;aspect=fixed;fontStyle=1;fontSize=24;rounded=1;fillColor=#f8cecc;strokeColor=#b85450;gradientColor=#ffffff;" parent="1" vertex="1">
          <mxGeometry x="370" y="158" width="140" height="140" as="geometry" />
        </mxCell>
        <mxCell id="DrzzF1mg_1247-aJoc_v-17" value="I" style="edgeStyle=orthogonalEdgeStyle;rounded=0;orthogonalLoop=1;jettySize=auto;html=1;exitX=0;exitY=0.75;exitDx=0;exitDy=0;entryX=1;entryY=0.75;entryDx=0;entryDy=0;fontSize=24;" parent="1" source="DrzzF1mg_1247-aJoc_v-5" target="DrzzF1mg_1247-aJoc_v-10" edge="1">
          <mxGeometry relative="1" as="geometry" />
        </mxCell>
        <mxCell id="DrzzF1mg_1247-aJoc_v-29" value="J" style="edgeStyle=orthogonalEdgeStyle;rounded=0;orthogonalLoop=1;jettySize=auto;html=1;exitX=1;exitY=0.25;exitDx=0;exitDy=0;entryX=1;entryY=0.65;entryDx=0;entryDy=0;entryPerimeter=0;fontSize=24;" parent="1" source="DrzzF1mg_1247-aJoc_v-5" target="DrzzF1mg_1247-aJoc_v-4" edge="1">
          <mxGeometry relative="1" as="geometry">
            <Array as="points">
              <mxPoint x="610" y="857" />
              <mxPoint x="610" y="249" />
            </Array>
          </mxGeometry>
        </mxCell>
        <mxCell id="DrzzF1mg_1247-aJoc_v-5" value="Game Server" style="whiteSpace=wrap;html=1;aspect=fixed;fontStyle=1;fontSize=24;rounded=1;fillColor=#f8cecc;strokeColor=#b85450;gradientColor=#ffffff;" parent="1" vertex="1">
          <mxGeometry x="370" y="822" width="140" height="140" as="geometry" />
        </mxCell>
        <mxCell id="DrzzF1mg_1247-aJoc_v-16" value="H" style="edgeStyle=orthogonalEdgeStyle;rounded=0;orthogonalLoop=1;jettySize=auto;html=1;exitX=1;exitY=0.25;exitDx=0;exitDy=0;entryX=0;entryY=0.25;entryDx=0;entryDy=0;fontSize=24;" parent="1" source="DrzzF1mg_1247-aJoc_v-10" target="DrzzF1mg_1247-aJoc_v-5" edge="1">
          <mxGeometry relative="1" as="geometry" />
        </mxCell>
        <mxCell id="DrzzF1mg_1247-aJoc_v-23" value="F" style="edgeStyle=orthogonalEdgeStyle;rounded=0;orthogonalLoop=1;jettySize=auto;html=1;exitX=0.5;exitY=0;exitDx=0;exitDy=0;entryX=0.3;entryY=0.993;entryDx=0;entryDy=0;entryPerimeter=0;fontSize=24;" parent="1" source="DrzzF1mg_1247-aJoc_v-10" target="DrzzF1mg_1247-aJoc_v-4" edge="1">
          <mxGeometry relative="1" as="geometry">
            <Array as="points">
              <mxPoint x="190" y="702" />
              <mxPoint x="412" y="702" />
            </Array>
          </mxGeometry>
        </mxCell>
        <mxCell id="DrzzF1mg_1247-aJoc_v-10" value="Game Client" style="whiteSpace=wrap;html=1;aspect=fixed;fontStyle=1;fontSize=24;fillColor=#d5e8d4;strokeColor=#82b366;gradientColor=#ffffff;rounded=1;shadow=0;sketch=0;glass=0;" parent="1" vertex="1">
          <mxGeometry x="120" y="822" width="140" height="140" as="geometry" />
        </mxCell>
        <mxCell id="DrzzF1mg_1247-aJoc_v-24" value="&lt;blockquote style=&quot;margin: 0 0 0 40px ; border: none ; padding: 0px&quot;&gt;A. 로그인 서버에서 현재 유저의 접속 여부를 로비서버에 전달합니다.&lt;/blockquote&gt;&lt;blockquote style=&quot;margin: 0 0 0 40px ; border: none ; padding: 0px&quot;&gt;&lt;br&gt;&lt;/blockquote&gt;&lt;blockquote style=&quot;margin: 0 0 0 40px ; border: none ; padding: 0px&quot;&gt;B. 로비 서버에서 현재 접속 된 유저의 상태정보(대기/준비/게임중)를 업데이트 해줍니다.&lt;/blockquote&gt;&lt;blockquote style=&quot;margin: 0 0 0 40px ; border: none ; padding: 0px&quot;&gt;&lt;br&gt;&lt;/blockquote&gt;&lt;blockquote style=&quot;margin: 0 0 0 40px ; border: none ; padding: 0px&quot;&gt;C. 게임 런처를 접속하기 위해 로그인 서버에 해당 유저의 로그인 정보를 요청 합니다.&lt;/blockquote&gt;&lt;blockquote style=&quot;margin: 0 0 0 40px ; border: none ; padding: 0px&quot;&gt;&lt;br&gt;&lt;/blockquote&gt;&lt;blockquote style=&quot;margin: 0 0 0 40px ; border: none ; padding: 0px&quot;&gt;D. 로그인 서버에서 해당하는 정보가 존재하면 접속 유저로 표기하고 게임 런처에 접속을 허가 합니다.&lt;/blockquote&gt;&lt;blockquote style=&quot;margin: 0 0 0 40px ; border: none ; padding: 0px&quot;&gt;&lt;br&gt;&lt;/blockquote&gt;&lt;blockquote style=&quot;margin: 0 0 0 40px ; border: none ; padding: 0px&quot;&gt;E. 게임 런처를 통해 게임을 실행 시킬 수 있습니다. (중복 실행 여부 체크)&lt;/blockquote&gt;&lt;blockquote style=&quot;margin: 0 0 0 40px ; border: none ; padding: 0px&quot;&gt;&lt;br&gt;&lt;/blockquote&gt;&lt;blockquote style=&quot;margin: 0 0 0 40px ; border: none ; padding: 0px&quot;&gt;F. 게임 클라이언트에서 로비 서버로 현재 플레이어의 상태(대기/준비/게임중)업데이트 및 친구 초대를 요청합니다.&lt;/blockquote&gt;&lt;blockquote style=&quot;margin: 0 0 0 40px ; border: none ; padding: 0px&quot;&gt;&lt;br&gt;&lt;/blockquote&gt;&lt;blockquote style=&quot;margin: 0 0 0 40px ; border: none ; padding: 0px&quot;&gt;G. 게임 클라이언트에서 방을 생성 하거나, 친구를 초대한다면, 준비 된 로비에 대해 접속 가능여부를 체크하고 이를 전달 해 줍니다.&lt;/blockquote&gt;&lt;blockquote style=&quot;margin: 0 0 0 40px ; border: none ; padding: 0px&quot;&gt;&lt;br&gt;&lt;/blockquote&gt;&lt;blockquote style=&quot;margin: 0 0 0 40px ; border: none ; padding: 0px&quot;&gt;H. 게임 클라이언트가 게임을 시작하면 게임 서버에서 플레이어의 입력 값을 전달합니다.&lt;/blockquote&gt;&lt;blockquote style=&quot;margin: 0 0 0 40px ; border: none ; padding: 0px&quot;&gt;&lt;br&gt;&lt;/blockquote&gt;&lt;blockquote style=&quot;margin: 0 0 0 40px ; border: none ; padding: 0px&quot;&gt;I. 입력 받은 값을 기반으로하여, 로직 과 충돌 등을 처리하여 게임 클라이언트에 전달하고, 이를 반영합니다.&lt;/blockquote&gt;&lt;blockquote style=&quot;margin: 0 0 0 40px ; border: none ; padding: 0px&quot;&gt;&lt;br&gt;&lt;/blockquote&gt;&lt;blockquote style=&quot;margin: 0 0 0 40px ; border: none ; padding: 0px&quot;&gt;J. 게임 서버에서 진행중인 게임 클라이언트가 종료 되었다면, 해당 정보에 대한 정보를 로비 서버에 알려줍니다.&lt;/blockquote&gt;&lt;blockquote style=&quot;margin: 0 0 0 40px ; border: none ; padding: 0px&quot;&gt;&lt;br&gt;&lt;/blockquote&gt;&lt;blockquote style=&quot;margin: 0 0 0 40px ; border: none ; padding: 0px&quot;&gt;K. 로비 서버에 매칭 가능한 유저들에 대한 정보를 게임 서버에 넘겨주고, 해당 유저끼리의 게임을 시작 가능한 상태로 바꿔줍니다.&lt;/blockquote&gt;" style="text;html=1;strokeColor=none;fillColor=none;align=left;verticalAlign=middle;whiteSpace=wrap;rounded=0;fontSize=24;" parent="1" vertex="1">
          <mxGeometry x="750" y="90" width="870" height="880" as="geometry" />
        </mxCell>
        <mxCell id="DrzzF1mg_1247-aJoc_v-32" value="" style="whiteSpace=wrap;html=1;aspect=fixed;fontStyle=1;fontSize=24;rounded=1;fillColor=#f8cecc;strokeColor=#b85450;gradientColor=#ffffff;" parent="1" vertex="1">
          <mxGeometry x="370" y="92" width="50" height="50" as="geometry" />
        </mxCell>
        <mxCell id="DrzzF1mg_1247-aJoc_v-33" value="" style="whiteSpace=wrap;html=1;aspect=fixed;fontStyle=1;fontSize=24;rounded=1;fillColor=#d5e8d4;strokeColor=#82b366;gradientColor=#ffffff;" parent="1" vertex="1">
          <mxGeometry x="120" y="92" width="50" height="50" as="geometry" />
        </mxCell>
        <mxCell id="DrzzF1mg_1247-aJoc_v-35" value="&lt;b&gt;&lt;font color=&quot;#4d9900&quot;&gt;유저 접근 가능&lt;/font&gt;&lt;/b&gt;" style="text;html=1;strokeColor=none;fillColor=none;align=center;verticalAlign=middle;whiteSpace=wrap;rounded=0;shadow=0;glass=0;sketch=0;fontSize=24;" parent="1" vertex="1">
          <mxGeometry x="180" y="92" width="180" height="50" as="geometry" />
        </mxCell>
        <mxCell id="DrzzF1mg_1247-aJoc_v-36" value="&lt;b&gt;&lt;font color=&quot;#ff3333&quot;&gt;유저 접근 불가&lt;/font&gt;&lt;/b&gt;" style="text;html=1;strokeColor=none;fillColor=none;align=center;verticalAlign=middle;whiteSpace=wrap;rounded=0;shadow=0;glass=0;sketch=0;fontSize=24;" parent="1" vertex="1">
          <mxGeometry x="430" y="92" width="180" height="50" as="geometry" />
        </mxCell>
        <mxCell id="uo0lGoHbAYeJwSbvRPOc-1" value="Login Server" style="whiteSpace=wrap;html=1;aspect=fixed;fontStyle=1;fontSize=24;rounded=1;fillColor=#f8cecc;strokeColor=#b85450;gradientColor=#ffffff;" parent="1" vertex="1">
          <mxGeometry x="120" y="1130" width="140" height="140" as="geometry" />
        </mxCell>
        <mxCell id="uo0lGoHbAYeJwSbvRPOc-2" value="&lt;b&gt;&lt;font style=&quot;font-size: 24px&quot;&gt;역할&lt;/font&gt;&lt;/b&gt;" style="whiteSpace=wrap;html=1;rounded=1;fontSize=24;fontStyle=1;strokeColor=#d6b656;fillColor=#fff2cc;" parent="1" vertex="1">
          <mxGeometry x="280" y="1070" width="1360" height="50" as="geometry" />
        </mxCell>
        <mxCell id="uo0lGoHbAYeJwSbvRPOc-3" value="&lt;b&gt;&lt;font style=&quot;font-size: 24px&quot;&gt;역할&lt;/font&gt;&lt;/b&gt;" style="whiteSpace=wrap;html=1;rounded=1;fontSize=24;fontStyle=1;strokeColor=#b85450;fillColor=#f8cecc;gradientColor=#ffffff;" parent="1" vertex="1">
          <mxGeometry x="280" y="1130" width="1360" height="140" as="geometry" />
        </mxCell>
        <mxCell id="uo0lGoHbAYeJwSbvRPOc-4" value="Lobby Server" style="whiteSpace=wrap;html=1;aspect=fixed;fontStyle=1;fontSize=24;rounded=1;fillColor=#f8cecc;strokeColor=#b85450;gradientColor=#ffffff;" parent="1" vertex="1">
          <mxGeometry x="120" y="1280" width="140" height="140" as="geometry" />
        </mxCell>
        <mxCell id="uo0lGoHbAYeJwSbvRPOc-5" value="&lt;b&gt;&lt;font style=&quot;font-size: 24px&quot;&gt;역할&lt;/font&gt;&lt;/b&gt;" style="whiteSpace=wrap;html=1;rounded=1;fontSize=24;fontStyle=1;strokeColor=#b85450;fillColor=#f8cecc;gradientColor=#ffffff;" parent="1" vertex="1">
          <mxGeometry x="280" y="1280" width="1360" height="140" as="geometry" />
        </mxCell>
        <mxCell id="uo0lGoHbAYeJwSbvRPOc-6" value="Game Server" style="whiteSpace=wrap;html=1;aspect=fixed;fontStyle=1;fontSize=24;rounded=1;fillColor=#f8cecc;strokeColor=#b85450;gradientColor=#ffffff;" parent="1" vertex="1">
          <mxGeometry x="120" y="1430" width="140" height="140" as="geometry" />
        </mxCell>
        <mxCell id="uo0lGoHbAYeJwSbvRPOc-7" value="&lt;b&gt;&lt;font style=&quot;font-size: 24px&quot;&gt;역할&lt;/font&gt;&lt;/b&gt;" style="whiteSpace=wrap;html=1;rounded=1;fontSize=24;fontStyle=1;strokeColor=#b85450;fillColor=#f8cecc;gradientColor=#ffffff;" parent="1" vertex="1">
          <mxGeometry x="280" y="1430" width="1360" height="140" as="geometry" />
        </mxCell>
        <mxCell id="uo0lGoHbAYeJwSbvRPOc-8" value="Game Client" style="whiteSpace=wrap;html=1;aspect=fixed;fontStyle=1;fontSize=24;fillColor=#d5e8d4;strokeColor=#82b366;gradientColor=#ffffff;rounded=1;shadow=0;sketch=0;glass=0;" parent="1" vertex="1">
          <mxGeometry x="120" y="1730" width="140" height="140" as="geometry" />
        </mxCell>
        <mxCell id="uo0lGoHbAYeJwSbvRPOc-9" value="Game Launcher" style="whiteSpace=wrap;html=1;aspect=fixed;fontStyle=1;fontSize=24;fillColor=#d5e8d4;strokeColor=#82b366;gradientColor=#ffffff;rounded=1;shadow=0;sketch=0;glass=0;" parent="1" vertex="1">
          <mxGeometry x="120" y="1580" width="140" height="140" as="geometry" />
        </mxCell>
        <mxCell id="uo0lGoHbAYeJwSbvRPOc-10" value="&lt;b&gt;&lt;font style=&quot;font-size: 24px&quot;&gt;역할&lt;/font&gt;&lt;/b&gt;" style="whiteSpace=wrap;html=1;rounded=1;fontSize=24;fontStyle=1;strokeColor=#82b366;fillColor=#d5e8d4;gradientColor=#ffffff;shadow=0;glass=0;sketch=0;" parent="1" vertex="1">
          <mxGeometry x="280" y="1580" width="1360" height="140" as="geometry" />
        </mxCell>
        <mxCell id="uo0lGoHbAYeJwSbvRPOc-11" value="&lt;b&gt;&lt;font style=&quot;font-size: 24px&quot;&gt;역할&lt;/font&gt;&lt;/b&gt;" style="whiteSpace=wrap;html=1;rounded=1;fontSize=24;fontStyle=1;strokeColor=#82b366;fillColor=#d5e8d4;gradientColor=#ffffff;shadow=0;glass=0;sketch=0;" parent="1" vertex="1">
          <mxGeometry x="280" y="1730" width="1360" height="140" as="geometry" />
        </mxCell>
        <mxCell id="Hs9Mh_KT2nY2T9CEcJsf-1" value="Lobby Server" style="whiteSpace=wrap;html=1;aspect=fixed;fontStyle=1;fontSize=24;rounded=1;fillColor=#f8cecc;strokeColor=#b85450;gradientColor=#ffffff;" vertex="1" parent="1">
          <mxGeometry x="370" y="158" width="140" height="140" as="geometry" />
        </mxCell>
        <mxCell id="Hs9Mh_KT2nY2T9CEcJsf-2" value="F" style="edgeStyle=orthogonalEdgeStyle;rounded=0;orthogonalLoop=1;jettySize=auto;html=1;exitX=0.5;exitY=0;exitDx=0;exitDy=0;entryX=0.3;entryY=0.993;entryDx=0;entryDy=0;entryPerimeter=0;fontSize=24;" edge="1" target="Hs9Mh_KT2nY2T9CEcJsf-1" parent="1">
          <mxGeometry relative="1" as="geometry">
            <Array as="points">
              <mxPoint x="190" y="702" />
              <mxPoint x="412" y="702" />
            </Array>
            <mxPoint x="190" y="822" as="sourcePoint" />
          </mxGeometry>
        </mxCell>
      </root>
    </mxGraphModel>
  </diagram>
  <diagram id="eaZdUaM4qELJAXtqXJOT" name="Login-Lobby(A,B)">
    <mxGraphModel dx="2062" dy="1122" grid="1" gridSize="10" guides="1" tooltips="1" connect="1" arrows="1" fold="1" page="1" pageScale="1" pageWidth="1654" pageHeight="2336" math="0" shadow="0">
      <root>
        <mxCell id="oEAS5vSrq92PanUuwA80-0" />
        <mxCell id="oEAS5vSrq92PanUuwA80-1" parent="oEAS5vSrq92PanUuwA80-0" />
        <mxCell id="dVAQNE2TW5a653bAAFDo-0" value="A" style="edgeStyle=orthogonalEdgeStyle;rounded=0;orthogonalLoop=1;jettySize=auto;html=1;exitX=1;exitY=0.25;exitDx=0;exitDy=0;entryX=0;entryY=0.25;entryDx=0;entryDy=0;fontSize=24;" parent="oEAS5vSrq92PanUuwA80-1" source="dVAQNE2TW5a653bAAFDo-1" target="dVAQNE2TW5a653bAAFDo-3" edge="1">
          <mxGeometry relative="1" as="geometry" />
        </mxCell>
        <mxCell id="dVAQNE2TW5a653bAAFDo-1" value="Login Server" style="whiteSpace=wrap;html=1;aspect=fixed;fontStyle=1;fontSize=24;rounded=1;fillColor=#f8cecc;strokeColor=#b85450;gradientColor=#ffffff;" parent="oEAS5vSrq92PanUuwA80-1" vertex="1">
          <mxGeometry x="247" y="60" width="140" height="140" as="geometry" />
        </mxCell>
        <mxCell id="dVAQNE2TW5a653bAAFDo-2" value="B" style="edgeStyle=orthogonalEdgeStyle;rounded=0;orthogonalLoop=1;jettySize=auto;html=1;exitX=0;exitY=0.75;exitDx=0;exitDy=0;entryX=1;entryY=0.75;entryDx=0;entryDy=0;fontSize=24;" parent="oEAS5vSrq92PanUuwA80-1" source="dVAQNE2TW5a653bAAFDo-3" target="dVAQNE2TW5a653bAAFDo-1" edge="1">
          <mxGeometry relative="1" as="geometry" />
        </mxCell>
        <mxCell id="dVAQNE2TW5a653bAAFDo-3" value="Lobby Server" style="whiteSpace=wrap;html=1;aspect=fixed;fontStyle=1;fontSize=24;rounded=1;fillColor=#f8cecc;strokeColor=#b85450;gradientColor=#ffffff;" parent="oEAS5vSrq92PanUuwA80-1" vertex="1">
          <mxGeometry x="1267" y="60" width="140" height="140" as="geometry" />
        </mxCell>
        <mxCell id="dVAQNE2TW5a653bAAFDo-4" value="" style="endArrow=none;html=1;rounded=0;entryX=0.5;entryY=1;entryDx=0;entryDy=0;" parent="oEAS5vSrq92PanUuwA80-1" target="dVAQNE2TW5a653bAAFDo-1" edge="1">
          <mxGeometry width="50" height="50" relative="1" as="geometry">
            <mxPoint x="317" y="2320" as="sourcePoint" />
            <mxPoint x="330" y="340" as="targetPoint" />
          </mxGeometry>
        </mxCell>
        <mxCell id="dVAQNE2TW5a653bAAFDo-5" value="" style="endArrow=none;html=1;rounded=0;entryX=0.5;entryY=1;entryDx=0;entryDy=0;" parent="oEAS5vSrq92PanUuwA80-1" edge="1">
          <mxGeometry width="50" height="50" relative="1" as="geometry">
            <mxPoint x="1336.5" y="2320" as="sourcePoint" />
            <mxPoint x="1336.5" y="200" as="targetPoint" />
          </mxGeometry>
        </mxCell>
        <mxCell id="zGrKTxZ_A2b9G8b28WnA-0" value="&lt;font style=&quot;font-size: 24px&quot;&gt;TCP Connect&lt;/font&gt;" style="endArrow=classic;html=1;rounded=0;" parent="oEAS5vSrq92PanUuwA80-1" edge="1">
          <mxGeometry width="50" height="50" relative="1" as="geometry">
            <mxPoint x="320" y="250" as="sourcePoint" />
            <mxPoint x="1330" y="250" as="targetPoint" />
          </mxGeometry>
        </mxCell>
        <mxCell id="zGrKTxZ_A2b9G8b28WnA-2" value="&lt;span style=&quot;font-size: 24px&quot;&gt;C2S_LOGIN_COMPLETE_USER_REQ&lt;/span&gt;" style="endArrow=classic;html=1;rounded=0;" parent="oEAS5vSrq92PanUuwA80-1" edge="1">
          <mxGeometry width="50" height="50" relative="1" as="geometry">
            <mxPoint x="322" y="630" as="sourcePoint" />
            <mxPoint x="1332" y="630" as="targetPoint" />
          </mxGeometry>
        </mxCell>
        <mxCell id="zGrKTxZ_A2b9G8b28WnA-3" value="로그인 서버에 접속 성공한 유저 정보를 Lobby 서버에 전달" style="rounded=0;whiteSpace=wrap;html=1;fontSize=24;" parent="oEAS5vSrq92PanUuwA80-1" vertex="1">
          <mxGeometry x="357" y="660" width="940" height="60" as="geometry" />
        </mxCell>
        <mxCell id="zGrKTxZ_A2b9G8b28WnA-4" value="S2C_LOGIN_COMPLETE_USER_RES" style="endArrow=classic;html=1;rounded=0;fontSize=24;" parent="oEAS5vSrq92PanUuwA80-1" edge="1">
          <mxGeometry width="50" height="50" relative="1" as="geometry">
            <mxPoint x="1332" y="751" as="sourcePoint" />
            <mxPoint x="322" y="751" as="targetPoint" />
          </mxGeometry>
        </mxCell>
        <mxCell id="zGrKTxZ_A2b9G8b28WnA-5" value="로그인 서버에&lt;br&gt;새로운 유저의 접속이&lt;br&gt;발생했을 때" style="text;html=1;align=center;verticalAlign=middle;resizable=0;points=[];autosize=1;strokeColor=none;fillColor=none;fontSize=24;" parent="oEAS5vSrq92PanUuwA80-1" vertex="1">
          <mxGeometry x="70" y="580" width="240" height="90" as="geometry" />
        </mxCell>
        <mxCell id="zGrKTxZ_A2b9G8b28WnA-7" value="&lt;span style=&quot;font-size: 24px&quot;&gt;C2S_LOGOUT_USER&lt;/span&gt;" style="endArrow=classic;html=1;rounded=0;" parent="oEAS5vSrq92PanUuwA80-1" edge="1">
          <mxGeometry width="50" height="50" relative="1" as="geometry">
            <mxPoint x="322" y="850" as="sourcePoint" />
            <mxPoint x="1332" y="850" as="targetPoint" />
          </mxGeometry>
        </mxCell>
        <mxCell id="zGrKTxZ_A2b9G8b28WnA-8" value="로그인 서버에서&lt;br&gt;유저가 로그아웃 하거나&lt;br&gt;강제 종료 시" style="text;html=1;align=center;verticalAlign=middle;resizable=0;points=[];autosize=1;strokeColor=none;fillColor=none;fontSize=24;" parent="oEAS5vSrq92PanUuwA80-1" vertex="1">
          <mxGeometry x="40" y="810" width="270" height="90" as="geometry" />
        </mxCell>
        <mxCell id="zGrKTxZ_A2b9G8b28WnA-10" value="로그인 인증된 유저만&lt;br&gt;Lobby에 접속 가능" style="text;html=1;align=center;verticalAlign=middle;resizable=0;points=[];autosize=1;strokeColor=none;fillColor=none;fontSize=24;" parent="oEAS5vSrq92PanUuwA80-1" vertex="1">
          <mxGeometry x="70" y="720" width="240" height="60" as="geometry" />
        </mxCell>
        <mxCell id="AZItb0skSW5LPmDJ3zOM-0" value="" style="rounded=1;whiteSpace=wrap;html=1;shadow=0;glass=0;sketch=0;fontSize=24;fontColor=#000000;gradientColor=#ffffff;fillColor=none;dashed=1;strokeWidth=5;strokeColor=#999900;" parent="oEAS5vSrq92PanUuwA80-1" vertex="1">
          <mxGeometry x="300" y="360" width="1050" height="100" as="geometry" />
        </mxCell>
        <mxCell id="AZItb0skSW5LPmDJ3zOM-1" value="&lt;b&gt;&lt;font color=&quot;#999900&quot; style=&quot;font-size: 36px&quot;&gt;LOOP&lt;/font&gt;&lt;/b&gt;" style="text;html=1;strokeColor=none;fillColor=none;align=center;verticalAlign=middle;whiteSpace=wrap;rounded=0;shadow=0;glass=0;dashed=1;sketch=0;fontSize=24;fontColor=#000000;" parent="oEAS5vSrq92PanUuwA80-1" vertex="1">
          <mxGeometry x="777" y="310" width="100" height="50" as="geometry" />
        </mxCell>
        <mxCell id="AZItb0skSW5LPmDJ3zOM-2" value="S2C_KEEP_ALIVE_CHECK_REQ" style="endArrow=classic;html=1;rounded=0;fontSize=24;" parent="oEAS5vSrq92PanUuwA80-1" edge="1">
          <mxGeometry width="50" height="50" relative="1" as="geometry">
            <mxPoint x="1332" y="390" as="sourcePoint" />
            <mxPoint x="322" y="390" as="targetPoint" />
          </mxGeometry>
        </mxCell>
        <mxCell id="AZItb0skSW5LPmDJ3zOM-3" value="&lt;span style=&quot;font-size: 24px&quot;&gt;C2S_KEEP_ALIVE_CHECK_RES&lt;/span&gt;" style="endArrow=classic;html=1;rounded=0;" parent="oEAS5vSrq92PanUuwA80-1" edge="1">
          <mxGeometry width="50" height="50" relative="1" as="geometry">
            <mxPoint x="322" y="430" as="sourcePoint" />
            <mxPoint x="1332" y="430" as="targetPoint" />
          </mxGeometry>
        </mxCell>
        <mxCell id="PptpMVnH20T_yiByRq64-2" value="서버 간 일정주기로&lt;br&gt;상태체크" style="text;html=1;align=center;verticalAlign=middle;resizable=0;points=[];autosize=1;strokeColor=none;fillColor=none;fontSize=24;" parent="oEAS5vSrq92PanUuwA80-1" vertex="1">
          <mxGeometry x="1380" y="360" width="220" height="60" as="geometry" />
        </mxCell>
        <mxCell id="PptpMVnH20T_yiByRq64-3" value="S2C_LOBBY_STATE" style="endArrow=classic;html=1;rounded=0;fontSize=24;" parent="oEAS5vSrq92PanUuwA80-1" edge="1">
          <mxGeometry width="50" height="50" relative="1" as="geometry">
            <mxPoint x="1332" y="980" as="sourcePoint" />
            <mxPoint x="322" y="980" as="targetPoint" />
          </mxGeometry>
        </mxCell>
        <mxCell id="PptpMVnH20T_yiByRq64-4" value="현재 로비에 있는 유저의 상태를 로그인 서버에 전달" style="rounded=0;whiteSpace=wrap;html=1;fontSize=24;" parent="oEAS5vSrq92PanUuwA80-1" vertex="1">
          <mxGeometry x="357" y="1010" width="940" height="60" as="geometry" />
        </mxCell>
      </root>
    </mxGraphModel>
  </diagram>
  <diagram id="WambueUmXf3jRoHMGW3W" name="Login-Launcher(C,D)">
    <mxGraphModel dx="2062" dy="1122" grid="1" gridSize="10" guides="1" tooltips="1" connect="1" arrows="1" fold="1" page="1" pageScale="1" pageWidth="1654" pageHeight="2336" math="0" shadow="0">
      <root>
        <mxCell id="VFf5zYS5_ZWrAleDO_EX-0" />
        <mxCell id="VFf5zYS5_ZWrAleDO_EX-1" parent="VFf5zYS5_ZWrAleDO_EX-0" />
        <mxCell id="CJWJalmX2IqEB3tsbOL_-3" value="D" style="edgeStyle=orthogonalEdgeStyle;rounded=0;orthogonalLoop=1;jettySize=auto;html=1;exitX=0;exitY=0.75;exitDx=0;exitDy=0;entryX=1;entryY=0.75;entryDx=0;entryDy=0;fontSize=24;fontColor=#000000;" parent="VFf5zYS5_ZWrAleDO_EX-1" source="VFf5zYS5_ZWrAleDO_EX-3" target="VFf5zYS5_ZWrAleDO_EX-5" edge="1">
          <mxGeometry relative="1" as="geometry" />
        </mxCell>
        <mxCell id="VFf5zYS5_ZWrAleDO_EX-3" value="Login Server" style="whiteSpace=wrap;html=1;aspect=fixed;fontStyle=1;fontSize=24;rounded=1;fillColor=#f8cecc;strokeColor=#b85450;gradientColor=#ffffff;" parent="VFf5zYS5_ZWrAleDO_EX-1" vertex="1">
          <mxGeometry x="1270" y="60" width="140" height="140" as="geometry" />
        </mxCell>
        <mxCell id="CJWJalmX2IqEB3tsbOL_-2" value="C" style="edgeStyle=orthogonalEdgeStyle;rounded=0;orthogonalLoop=1;jettySize=auto;html=1;exitX=1;exitY=0.25;exitDx=0;exitDy=0;entryX=0;entryY=0.25;entryDx=0;entryDy=0;fontSize=24;fontColor=#000000;" parent="VFf5zYS5_ZWrAleDO_EX-1" source="VFf5zYS5_ZWrAleDO_EX-5" target="VFf5zYS5_ZWrAleDO_EX-3" edge="1">
          <mxGeometry relative="1" as="geometry" />
        </mxCell>
        <mxCell id="VFf5zYS5_ZWrAleDO_EX-5" value="Game Launcher" style="whiteSpace=wrap;html=1;aspect=fixed;fontStyle=1;fontSize=24;fillColor=#d5e8d4;strokeColor=#82b366;gradientColor=#ffffff;rounded=1;shadow=0;sketch=0;glass=0;" parent="VFf5zYS5_ZWrAleDO_EX-1" vertex="1">
          <mxGeometry x="250" y="60" width="140" height="140" as="geometry" />
        </mxCell>
        <mxCell id="CJWJalmX2IqEB3tsbOL_-0" value="" style="endArrow=none;html=1;rounded=0;entryX=0.5;entryY=1;entryDx=0;entryDy=0;" parent="VFf5zYS5_ZWrAleDO_EX-1" edge="1">
          <mxGeometry width="50" height="50" relative="1" as="geometry">
            <mxPoint x="317" y="2320" as="sourcePoint" />
            <mxPoint x="317" y="200" as="targetPoint" />
          </mxGeometry>
        </mxCell>
        <mxCell id="CJWJalmX2IqEB3tsbOL_-1" value="" style="endArrow=none;html=1;rounded=0;entryX=0.5;entryY=1;entryDx=0;entryDy=0;" parent="VFf5zYS5_ZWrAleDO_EX-1" edge="1">
          <mxGeometry width="50" height="50" relative="1" as="geometry">
            <mxPoint x="1336.5" y="2320" as="sourcePoint" />
            <mxPoint x="1336.5" y="200" as="targetPoint" />
          </mxGeometry>
        </mxCell>
        <mxCell id="WW5VlhXOl2x_YDnw4_kv-0" value="S2C_LOGIN_SAFE_RES" style="endArrow=classic;html=1;rounded=0;fontSize=24;" parent="VFf5zYS5_ZWrAleDO_EX-1" edge="1">
          <mxGeometry width="50" height="50" relative="1" as="geometry">
            <mxPoint x="1330" y="600" as="sourcePoint" />
            <mxPoint x="320" y="600" as="targetPoint" />
          </mxGeometry>
        </mxCell>
        <mxCell id="WW5VlhXOl2x_YDnw4_kv-1" value="C2S_LOGIN_SAFE_REQ" style="endArrow=classic;html=1;rounded=0;fontSize=24;" parent="VFf5zYS5_ZWrAleDO_EX-1" edge="1">
          <mxGeometry width="50" height="50" relative="1" as="geometry">
            <mxPoint x="322" y="540" as="sourcePoint" />
            <mxPoint x="1332" y="540" as="targetPoint" />
          </mxGeometry>
        </mxCell>
        <mxCell id="WW5VlhXOl2x_YDnw4_kv-2" value="TCP Connect" style="endArrow=classic;html=1;rounded=0;fontSize=24;" parent="VFf5zYS5_ZWrAleDO_EX-1" edge="1">
          <mxGeometry width="50" height="50" relative="1" as="geometry">
            <mxPoint x="322" y="240" as="sourcePoint" />
            <mxPoint x="1332" y="240" as="targetPoint" />
          </mxGeometry>
        </mxCell>
        <mxCell id="beUtgk9OIiHUP8qkT9fT-0" value="&lt;div style=&quot;text-align: center&quot;&gt;&lt;span&gt;&lt;span style=&quot;white-space: pre&quot;&gt; &lt;/span&gt;&lt;span style=&quot;white-space: pre&quot;&gt; &lt;/span&gt;&lt;span style=&quot;white-space: pre&quot;&gt; &lt;/span&gt;로그인이 됐는지 Flag&lt;/span&gt;&lt;/div&gt;&lt;div&gt;&lt;span&gt;True&lt;/span&gt;&lt;span style=&quot;white-space: pre&quot;&gt; &lt;span style=&quot;white-space: pre&quot;&gt; &lt;/span&gt;&lt;/span&gt;&lt;span&gt;=&amp;gt; 로그인이 성공적으로 수행, Lobby에 전달한 Key 값을 같이 보냄&lt;/span&gt;&lt;/div&gt;&lt;div&gt;&lt;span&gt;False&lt;/span&gt;&lt;span style=&quot;white-space: pre&quot;&gt; &lt;/span&gt;&lt;span&gt;=&amp;gt; 로그인 실패, 실패 유형 같이 전달.&lt;/span&gt;&lt;/div&gt;" style="rounded=0;whiteSpace=wrap;html=1;fontSize=24;align=left;" parent="VFf5zYS5_ZWrAleDO_EX-1" vertex="1">
          <mxGeometry x="357" y="640" width="940" height="110" as="geometry" />
        </mxCell>
        <mxCell id="WQ4QBAdbHvoDjkfrksIM-0" value="&lt;font color=&quot;#b5739d&quot;&gt;DB에 정보 요청 후&lt;br&gt;입력 값 대조&lt;br&gt;&lt;/font&gt;" style="text;html=1;align=center;verticalAlign=middle;resizable=0;points=[];autosize=1;strokeColor=none;fillColor=none;fontSize=24;" parent="VFf5zYS5_ZWrAleDO_EX-1" vertex="1">
          <mxGeometry x="1350" y="540" width="210" height="60" as="geometry" />
        </mxCell>
        <mxCell id="HewXr8uAueK5JhHabbkZ-0" value="" style="rounded=1;whiteSpace=wrap;html=1;shadow=0;glass=0;sketch=0;fontSize=24;fontColor=#000000;gradientColor=#ffffff;fillColor=none;dashed=1;strokeWidth=5;strokeColor=#999900;" parent="VFf5zYS5_ZWrAleDO_EX-1" vertex="1">
          <mxGeometry x="310" y="320" width="1040" height="150" as="geometry" />
        </mxCell>
        <mxCell id="HewXr8uAueK5JhHabbkZ-1" value="&lt;b&gt;&lt;font color=&quot;#999900&quot; style=&quot;font-size: 36px&quot;&gt;LOOP&lt;/font&gt;&lt;/b&gt;" style="text;html=1;strokeColor=none;fillColor=none;align=center;verticalAlign=middle;whiteSpace=wrap;rounded=0;shadow=0;glass=0;dashed=1;sketch=0;fontSize=24;fontColor=#000000;" parent="VFf5zYS5_ZWrAleDO_EX-1" vertex="1">
          <mxGeometry x="777" y="270" width="100" height="50" as="geometry" />
        </mxCell>
        <mxCell id="HewXr8uAueK5JhHabbkZ-2" value="&lt;span style=&quot;color: rgb(0 , 0 , 0)&quot;&gt;C2S_KEEP_ALIVE_CHECK_RES&lt;/span&gt;" style="endArrow=classic;html=1;rounded=0;fontSize=24;fontColor=#4D9900;" parent="VFf5zYS5_ZWrAleDO_EX-1" edge="1">
          <mxGeometry width="50" height="50" relative="1" as="geometry">
            <mxPoint x="320" y="420" as="sourcePoint" />
            <mxPoint x="1330" y="420" as="targetPoint" />
          </mxGeometry>
        </mxCell>
        <mxCell id="HewXr8uAueK5JhHabbkZ-3" value="S2C_KEEP_ALIVE_CHECK_REQ" style="endArrow=classic;html=1;rounded=0;fontSize=24;fontColor=#000000;" parent="VFf5zYS5_ZWrAleDO_EX-1" edge="1">
          <mxGeometry width="50" height="50" relative="1" as="geometry">
            <mxPoint x="1330" y="370" as="sourcePoint" />
            <mxPoint x="320" y="370" as="targetPoint" />
          </mxGeometry>
        </mxCell>
        <mxCell id="HewXr8uAueK5JhHabbkZ-4" value="로그인 된 유저의&lt;br&gt;정상 접속 여부&lt;br&gt;및 친구 요청 여부" style="text;html=1;align=center;verticalAlign=middle;resizable=0;points=[];autosize=1;strokeColor=none;fillColor=none;fontSize=24;" parent="VFf5zYS5_ZWrAleDO_EX-1" vertex="1">
          <mxGeometry x="90" y="350" width="200" height="90" as="geometry" />
        </mxCell>
        <mxCell id="WBrh8bGnZSoT7Lzheio6-0" value="C2S_LAUNCHER_FRIEND_REQ" style="endArrow=classic;html=1;rounded=0;fontSize=24;" edge="1" parent="VFf5zYS5_ZWrAleDO_EX-1">
          <mxGeometry width="50" height="50" relative="1" as="geometry">
            <mxPoint x="322" y="820" as="sourcePoint" />
            <mxPoint x="1332" y="820" as="targetPoint" />
          </mxGeometry>
        </mxCell>
        <mxCell id="WBrh8bGnZSoT7Lzheio6-1" value="S2C_LAUNCHER_FRIEND_RES" style="endArrow=classic;html=1;rounded=0;fontSize=24;" edge="1" parent="VFf5zYS5_ZWrAleDO_EX-1">
          <mxGeometry width="50" height="50" relative="1" as="geometry">
            <mxPoint x="1332" y="860" as="sourcePoint" />
            <mxPoint x="322" y="860" as="targetPoint" />
          </mxGeometry>
        </mxCell>
        <mxCell id="WBrh8bGnZSoT7Lzheio6-2" value="친구 추가 요청을&lt;br&gt;보냈을 때" style="text;html=1;align=center;verticalAlign=middle;resizable=0;points=[];autosize=1;strokeColor=none;fillColor=none;fontSize=24;" vertex="1" parent="VFf5zYS5_ZWrAleDO_EX-1">
          <mxGeometry x="110" y="810" width="200" height="60" as="geometry" />
        </mxCell>
        <mxCell id="WBrh8bGnZSoT7Lzheio6-3" value="&lt;font color=&quot;#b5739d&quot;&gt;DB에 친구 추가 요청&lt;br&gt;정보를 저장해 둠&lt;br&gt;&lt;/font&gt;" style="text;html=1;align=center;verticalAlign=middle;resizable=0;points=[];autosize=1;strokeColor=none;fillColor=none;fontSize=24;" vertex="1" parent="VFf5zYS5_ZWrAleDO_EX-1">
          <mxGeometry x="1350" y="810" width="240" height="60" as="geometry" />
        </mxCell>
      </root>
    </mxGraphModel>
  </diagram>
  <diagram id="H1n4KL9nwOmtqZXT3oX0" name="Launcher-Client(E)">
    <mxGraphModel dx="2062" dy="1122" grid="1" gridSize="10" guides="1" tooltips="1" connect="1" arrows="1" fold="1" page="1" pageScale="1" pageWidth="1654" pageHeight="2336" math="0" shadow="0">
      <root>
        <mxCell id="t9pgarxmcL6A0Kl2xIc8-0" />
        <mxCell id="t9pgarxmcL6A0Kl2xIc8-1" parent="t9pgarxmcL6A0Kl2xIc8-0" />
        <mxCell id="0Z2Cj6aX0hkkvwt-linM-0" value="E" style="edgeStyle=orthogonalEdgeStyle;rounded=0;orthogonalLoop=1;jettySize=auto;html=1;exitX=1;exitY=0.5;exitDx=0;exitDy=0;fontSize=24;" edge="1" parent="t9pgarxmcL6A0Kl2xIc8-1" source="t9pgarxmcL6A0Kl2xIc8-3" target="t9pgarxmcL6A0Kl2xIc8-4">
          <mxGeometry relative="1" as="geometry" />
        </mxCell>
        <mxCell id="t9pgarxmcL6A0Kl2xIc8-3" value="Game Launcher" style="whiteSpace=wrap;html=1;aspect=fixed;fontStyle=1;fontSize=24;fillColor=#d5e8d4;strokeColor=#82b366;gradientColor=#ffffff;rounded=1;shadow=0;sketch=0;glass=0;" vertex="1" parent="t9pgarxmcL6A0Kl2xIc8-1">
          <mxGeometry x="247" y="60" width="140" height="140" as="geometry" />
        </mxCell>
        <mxCell id="t9pgarxmcL6A0Kl2xIc8-4" value="Game Client" style="whiteSpace=wrap;html=1;aspect=fixed;fontStyle=1;fontSize=24;fillColor=#d5e8d4;strokeColor=#82b366;gradientColor=#ffffff;rounded=1;shadow=0;sketch=0;glass=0;" vertex="1" parent="t9pgarxmcL6A0Kl2xIc8-1">
          <mxGeometry x="1267" y="60" width="140" height="140" as="geometry" />
        </mxCell>
        <mxCell id="sC-Qv8li6jV7AmcLa3C7-0" value="" style="endArrow=none;html=1;rounded=0;entryX=0.5;entryY=1;entryDx=0;entryDy=0;" edge="1" parent="t9pgarxmcL6A0Kl2xIc8-1">
          <mxGeometry width="50" height="50" relative="1" as="geometry">
            <mxPoint x="317" y="2320" as="sourcePoint" />
            <mxPoint x="317" y="200" as="targetPoint" />
          </mxGeometry>
        </mxCell>
        <mxCell id="sC-Qv8li6jV7AmcLa3C7-1" value="" style="endArrow=none;html=1;rounded=0;entryX=0.5;entryY=1;entryDx=0;entryDy=0;" edge="1" parent="t9pgarxmcL6A0Kl2xIc8-1">
          <mxGeometry width="50" height="50" relative="1" as="geometry">
            <mxPoint x="1336.5" y="2320" as="sourcePoint" />
            <mxPoint x="1336.5" y="200" as="targetPoint" />
          </mxGeometry>
        </mxCell>
        <mxCell id="TgAxGzUBrPxG2JQgKz_T-0" value="&lt;span style=&quot;font-size: 24px&quot;&gt;중복접속 체크&lt;/span&gt;" style="endArrow=classic;html=1;rounded=0;" edge="1" parent="t9pgarxmcL6A0Kl2xIc8-1">
          <mxGeometry width="50" height="50" relative="1" as="geometry">
            <mxPoint x="320" y="250" as="sourcePoint" />
            <mxPoint x="1330" y="250" as="targetPoint" />
          </mxGeometry>
        </mxCell>
        <mxCell id="TgAxGzUBrPxG2JQgKz_T-1" value="&lt;span style=&quot;font-size: 24px&quot;&gt;인증용 Key&lt;/span&gt;" style="endArrow=classic;html=1;rounded=0;" edge="1" parent="t9pgarxmcL6A0Kl2xIc8-1">
          <mxGeometry width="50" height="50" relative="1" as="geometry">
            <mxPoint x="322" y="320" as="sourcePoint" />
            <mxPoint x="1332" y="320" as="targetPoint" />
          </mxGeometry>
        </mxCell>
        <mxCell id="TgAxGzUBrPxG2JQgKz_T-2" value="로그인 서버로 부터 받은 로비 접속 Key" style="rounded=0;whiteSpace=wrap;html=1;fontSize=24;" vertex="1" parent="t9pgarxmcL6A0Kl2xIc8-1">
          <mxGeometry x="557" y="350" width="540" height="40" as="geometry" />
        </mxCell>
      </root>
    </mxGraphModel>
  </diagram>
  <diagram id="a_bKJVVqxF_QpnuT7Eh9" name="Lobby-Client(F,G)">
    <mxGraphModel dx="2062" dy="1122" grid="1" gridSize="10" guides="1" tooltips="1" connect="1" arrows="1" fold="1" page="1" pageScale="1" pageWidth="1654" pageHeight="2336" math="0" shadow="0">
      <root>
        <mxCell id="7YSTlm0ZNrT-Q_bdGDma-0" />
        <mxCell id="7YSTlm0ZNrT-Q_bdGDma-1" parent="7YSTlm0ZNrT-Q_bdGDma-0" />
        <mxCell id="aDEZO5ZYz8114uSIbnqO-0" value="F" style="edgeStyle=orthogonalEdgeStyle;rounded=0;orthogonalLoop=1;jettySize=auto;html=1;exitX=1;exitY=0.25;exitDx=0;exitDy=0;entryX=0;entryY=0.25;entryDx=0;entryDy=0;fontSize=24;" edge="1" parent="7YSTlm0ZNrT-Q_bdGDma-1" source="3gHs9IQI6gGZju7jDTBT-1" target="3gHs9IQI6gGZju7jDTBT-2">
          <mxGeometry relative="1" as="geometry" />
        </mxCell>
        <mxCell id="3gHs9IQI6gGZju7jDTBT-1" value="Game Client A" style="whiteSpace=wrap;html=1;aspect=fixed;fontStyle=1;fontSize=24;fillColor=#d5e8d4;strokeColor=#82b366;gradientColor=#ffffff;rounded=1;shadow=0;sketch=0;glass=0;" vertex="1" parent="7YSTlm0ZNrT-Q_bdGDma-1">
          <mxGeometry x="247" y="60" width="140" height="140" as="geometry" />
        </mxCell>
        <mxCell id="aDEZO5ZYz8114uSIbnqO-1" value="G" style="edgeStyle=orthogonalEdgeStyle;rounded=0;orthogonalLoop=1;jettySize=auto;html=1;exitX=0;exitY=0.75;exitDx=0;exitDy=0;entryX=1;entryY=0.75;entryDx=0;entryDy=0;fontSize=24;" edge="1" parent="7YSTlm0ZNrT-Q_bdGDma-1" source="3gHs9IQI6gGZju7jDTBT-2" target="3gHs9IQI6gGZju7jDTBT-1">
          <mxGeometry relative="1" as="geometry" />
        </mxCell>
        <mxCell id="3gHs9IQI6gGZju7jDTBT-2" value="Lobby Server" style="whiteSpace=wrap;html=1;aspect=fixed;fontStyle=1;fontSize=24;rounded=1;fillColor=#f8cecc;strokeColor=#b85450;gradientColor=#ffffff;" vertex="1" parent="7YSTlm0ZNrT-Q_bdGDma-1">
          <mxGeometry x="1267" y="60" width="140" height="140" as="geometry" />
        </mxCell>
        <mxCell id="QtsYjp5wX38yV6J1K1V9-0" value="" style="endArrow=none;html=1;rounded=0;entryX=0.5;entryY=1;entryDx=0;entryDy=0;" edge="1" parent="7YSTlm0ZNrT-Q_bdGDma-1">
          <mxGeometry width="50" height="50" relative="1" as="geometry">
            <mxPoint x="317" y="2320" as="sourcePoint" />
            <mxPoint x="317" y="200" as="targetPoint" />
          </mxGeometry>
        </mxCell>
        <mxCell id="QtsYjp5wX38yV6J1K1V9-1" value="" style="endArrow=none;html=1;rounded=0;entryX=0.5;entryY=1;entryDx=0;entryDy=0;" edge="1" parent="7YSTlm0ZNrT-Q_bdGDma-1">
          <mxGeometry width="50" height="50" relative="1" as="geometry">
            <mxPoint x="1336.5" y="2320" as="sourcePoint" />
            <mxPoint x="1336.5" y="200" as="targetPoint" />
          </mxGeometry>
        </mxCell>
        <mxCell id="ENeIuz3WJYitnZ1r8Qu0-0" value="TCP Connect" style="endArrow=classic;html=1;rounded=0;fontSize=24;" edge="1" parent="7YSTlm0ZNrT-Q_bdGDma-1">
          <mxGeometry width="50" height="50" relative="1" as="geometry">
            <mxPoint x="322" y="240" as="sourcePoint" />
            <mxPoint x="1332" y="240" as="targetPoint" />
          </mxGeometry>
        </mxCell>
        <mxCell id="ENeIuz3WJYitnZ1r8Qu0-1" value="C2S_LOBBY_AUTHENTICATION_REQ" style="endArrow=classic;html=1;rounded=0;fontSize=24;" edge="1" parent="7YSTlm0ZNrT-Q_bdGDma-1">
          <mxGeometry width="50" height="50" relative="1" as="geometry">
            <mxPoint x="322" y="310" as="sourcePoint" />
            <mxPoint x="1332" y="310" as="targetPoint" />
          </mxGeometry>
        </mxCell>
        <mxCell id="cffRLQKiJOVyEYy7Dr0X-0" value="S2C_LOBBY_AUTHENTICATION_RES" style="endArrow=classic;html=1;rounded=0;fontSize=24;" edge="1" parent="7YSTlm0ZNrT-Q_bdGDma-1">
          <mxGeometry width="50" height="50" relative="1" as="geometry">
            <mxPoint x="1330" y="350" as="sourcePoint" />
            <mxPoint x="320" y="350" as="targetPoint" />
          </mxGeometry>
        </mxCell>
        <mxCell id="nx0ZJGTLg9VTzelBkJrj-0" value="&lt;div style=&quot;text-align: center&quot;&gt;&lt;span&gt;&lt;span style=&quot;white-space: pre&quot;&gt;   &lt;span style=&quot;white-space: pre&quot;&gt;	&lt;/span&gt;&lt;span style=&quot;white-space: pre&quot;&gt;	&lt;/span&gt;&lt;span style=&quot;white-space: pre&quot;&gt;	&lt;span style=&quot;white-space: pre&quot;&gt;	&lt;/span&gt;&lt;span style=&quot;white-space: pre&quot;&gt;	&lt;/span&gt; &lt;/span&gt;    로비서버에 등록된 유저인가?&lt;/span&gt;&lt;/span&gt;&lt;/div&gt;&lt;div&gt;&lt;span&gt;True&lt;/span&gt;&lt;span style=&quot;white-space: pre&quot;&gt; &lt;span style=&quot;white-space: pre&quot;&gt; &lt;span style=&quot;white-space: pre&quot;&gt;	&lt;/span&gt;&lt;/span&gt;&lt;/span&gt;&lt;span&gt;=&amp;gt; 인증 성공,&amp;nbsp; LOBBY 서버에 접속 권한 허가.&lt;/span&gt;&lt;/div&gt;&lt;div&gt;&lt;span&gt;False&lt;/span&gt;&lt;span style=&quot;white-space: pre&quot;&gt; &lt;span style=&quot;white-space: pre&quot;&gt;	&lt;/span&gt;&lt;/span&gt;&lt;span&gt;=&amp;gt; 인증 실패, 강제 종료&lt;/span&gt;&lt;/div&gt;" style="rounded=0;whiteSpace=wrap;html=1;fontSize=24;align=left;" vertex="1" parent="7YSTlm0ZNrT-Q_bdGDma-1">
          <mxGeometry x="357" y="390" width="940" height="110" as="geometry" />
        </mxCell>
        <mxCell id="nx0ZJGTLg9VTzelBkJrj-2" value="S2C_LOBBY_FRIEND_LIST" style="endArrow=classic;html=1;rounded=0;fontSize=24;" edge="1" parent="7YSTlm0ZNrT-Q_bdGDma-1">
          <mxGeometry width="50" height="50" relative="1" as="geometry">
            <mxPoint x="1332" y="600" as="sourcePoint" />
            <mxPoint x="322" y="600" as="targetPoint" />
          </mxGeometry>
        </mxCell>
        <mxCell id="nx0ZJGTLg9VTzelBkJrj-3" value="&lt;div&gt;현재 클라이언트와 친구 관계인 사람 전송.&lt;/div&gt;" style="rounded=0;whiteSpace=wrap;html=1;fontSize=24;align=center;" vertex="1" parent="7YSTlm0ZNrT-Q_bdGDma-1">
          <mxGeometry x="357" y="630" width="940" height="60" as="geometry" />
        </mxCell>
        <mxCell id="nx0ZJGTLg9VTzelBkJrj-4" value="C2S_CLIENT_INVITE_FRIEND_REQ" style="endArrow=classic;html=1;rounded=0;fontSize=24;strokeColor=#FF3333;" edge="1" parent="7YSTlm0ZNrT-Q_bdGDma-1">
          <mxGeometry width="50" height="50" relative="1" as="geometry">
            <mxPoint x="322" y="750" as="sourcePoint" />
            <mxPoint x="1332" y="750" as="targetPoint" />
          </mxGeometry>
        </mxCell>
        <mxCell id="nx0ZJGTLg9VTzelBkJrj-5" value="S2C_CLIENT_INVITE_FRIEND_RES" style="endArrow=classic;html=1;rounded=0;fontSize=24;strokeColor=#FF0A0A;" edge="1" parent="7YSTlm0ZNrT-Q_bdGDma-1">
          <mxGeometry width="50" height="50" relative="1" as="geometry">
            <mxPoint x="1332" y="790" as="sourcePoint" />
            <mxPoint x="322" y="790" as="targetPoint" />
          </mxGeometry>
        </mxCell>
        <mxCell id="nx0ZJGTLg9VTzelBkJrj-6" value="유효한 친구인지 검증 / 친구 초대에 대한 요청 전송" style="rounded=0;whiteSpace=wrap;html=1;fontSize=24;align=center;" vertex="1" parent="7YSTlm0ZNrT-Q_bdGDma-1">
          <mxGeometry x="357" y="820" width="940" height="60" as="geometry" />
        </mxCell>
        <mxCell id="nx0ZJGTLg9VTzelBkJrj-7" value="C2S_CLIENT_READY_OK_REQ" style="endArrow=classic;html=1;rounded=0;fontSize=24;" edge="1" parent="7YSTlm0ZNrT-Q_bdGDma-1">
          <mxGeometry width="50" height="50" relative="1" as="geometry">
            <mxPoint x="322" y="1090" as="sourcePoint" />
            <mxPoint x="1332" y="1090" as="targetPoint" />
          </mxGeometry>
        </mxCell>
        <mxCell id="nx0ZJGTLg9VTzelBkJrj-8" value="Game Client B" style="whiteSpace=wrap;html=1;aspect=fixed;fontStyle=1;fontSize=24;fillColor=#d5e8d4;strokeColor=#82b366;gradientColor=#ffffff;rounded=1;shadow=0;sketch=0;glass=0;" vertex="1" parent="7YSTlm0ZNrT-Q_bdGDma-1">
          <mxGeometry x="60" y="60" width="140" height="140" as="geometry" />
        </mxCell>
        <mxCell id="nx0ZJGTLg9VTzelBkJrj-9" value="" style="endArrow=none;html=1;rounded=0;entryX=0.5;entryY=1;entryDx=0;entryDy=0;" edge="1" parent="7YSTlm0ZNrT-Q_bdGDma-1" target="nx0ZJGTLg9VTzelBkJrj-8">
          <mxGeometry width="50" height="50" relative="1" as="geometry">
            <mxPoint x="129.5" y="2320" as="sourcePoint" />
            <mxPoint x="130" y="1170" as="targetPoint" />
          </mxGeometry>
        </mxCell>
        <mxCell id="nx0ZJGTLg9VTzelBkJrj-10" value="C2S_CLIENT_READY_CANCLE" style="endArrow=classic;html=1;rounded=0;fontSize=24;" edge="1" parent="7YSTlm0ZNrT-Q_bdGDma-1">
          <mxGeometry width="50" height="50" relative="1" as="geometry">
            <mxPoint x="322" y="1250" as="sourcePoint" />
            <mxPoint x="1332" y="1250" as="targetPoint" />
          </mxGeometry>
        </mxCell>
        <mxCell id="nx0ZJGTLg9VTzelBkJrj-11" value="S2C_CLIENT_READY_OK_RES" style="endArrow=classic;html=1;rounded=0;fontSize=24;" edge="1" parent="7YSTlm0ZNrT-Q_bdGDma-1">
          <mxGeometry width="50" height="50" relative="1" as="geometry">
            <mxPoint x="1332" y="1130" as="sourcePoint" />
            <mxPoint x="322" y="1130" as="targetPoint" />
          </mxGeometry>
        </mxCell>
        <mxCell id="nx0ZJGTLg9VTzelBkJrj-12" value="준비 상태에 대한 정보 (중복 캐릭터 선택 불가)&lt;br&gt;캐릭터 Type" style="rounded=0;whiteSpace=wrap;html=1;fontSize=24;align=center;" vertex="1" parent="7YSTlm0ZNrT-Q_bdGDma-1">
          <mxGeometry x="357" y="1160" width="940" height="60" as="geometry" />
        </mxCell>
        <mxCell id="nx0ZJGTLg9VTzelBkJrj-14" value="" style="endArrow=classic;html=1;rounded=0;fontSize=24;" edge="1" parent="7YSTlm0ZNrT-Q_bdGDma-1">
          <mxGeometry width="50" height="50" relative="1" as="geometry">
            <mxPoint x="310" y="1130" as="sourcePoint" />
            <mxPoint x="130" y="1130" as="targetPoint" />
          </mxGeometry>
        </mxCell>
        <mxCell id="nx0ZJGTLg9VTzelBkJrj-15" value="" style="endArrow=classic;html=1;rounded=0;fontSize=24;" edge="1" parent="7YSTlm0ZNrT-Q_bdGDma-1">
          <mxGeometry width="50" height="50" relative="1" as="geometry">
            <mxPoint x="130" y="1090" as="sourcePoint" />
            <mxPoint x="310" y="1090" as="targetPoint" />
          </mxGeometry>
        </mxCell>
        <mxCell id="nx0ZJGTLg9VTzelBkJrj-16" value="" style="endArrow=classic;html=1;rounded=0;fontSize=24;" edge="1" parent="7YSTlm0ZNrT-Q_bdGDma-1">
          <mxGeometry width="50" height="50" relative="1" as="geometry">
            <mxPoint x="130" y="1250" as="sourcePoint" />
            <mxPoint x="310" y="1250" as="targetPoint" />
          </mxGeometry>
        </mxCell>
        <mxCell id="nx0ZJGTLg9VTzelBkJrj-17" value="" style="endArrow=classic;html=1;rounded=0;fontSize=24;" edge="1" parent="7YSTlm0ZNrT-Q_bdGDma-1">
          <mxGeometry width="50" height="50" relative="1" as="geometry">
            <mxPoint x="130" y="240" as="sourcePoint" />
            <mxPoint x="310" y="240" as="targetPoint" />
          </mxGeometry>
        </mxCell>
        <mxCell id="nx0ZJGTLg9VTzelBkJrj-18" value="" style="endArrow=classic;html=1;rounded=0;fontSize=24;" edge="1" parent="7YSTlm0ZNrT-Q_bdGDma-1">
          <mxGeometry width="50" height="50" relative="1" as="geometry">
            <mxPoint x="130" y="310" as="sourcePoint" />
            <mxPoint x="310" y="310" as="targetPoint" />
          </mxGeometry>
        </mxCell>
        <mxCell id="nx0ZJGTLg9VTzelBkJrj-19" value="" style="endArrow=classic;html=1;rounded=0;fontSize=24;" edge="1" parent="7YSTlm0ZNrT-Q_bdGDma-1">
          <mxGeometry width="50" height="50" relative="1" as="geometry">
            <mxPoint x="310" y="350" as="sourcePoint" />
            <mxPoint x="130" y="350" as="targetPoint" />
          </mxGeometry>
        </mxCell>
        <mxCell id="nx0ZJGTLg9VTzelBkJrj-20" value="" style="endArrow=classic;html=1;rounded=0;fontSize=24;" edge="1" parent="7YSTlm0ZNrT-Q_bdGDma-1">
          <mxGeometry width="50" height="50" relative="1" as="geometry">
            <mxPoint x="310" y="600" as="sourcePoint" />
            <mxPoint x="130" y="600" as="targetPoint" />
          </mxGeometry>
        </mxCell>
        <mxCell id="nx0ZJGTLg9VTzelBkJrj-22" value="" style="endArrow=classic;html=1;rounded=0;fontSize=24;strokeColor=#FF0A0A;" edge="1" parent="7YSTlm0ZNrT-Q_bdGDma-1">
          <mxGeometry width="50" height="50" relative="1" as="geometry">
            <mxPoint x="310" y="790" as="sourcePoint" />
            <mxPoint x="130" y="790" as="targetPoint" />
          </mxGeometry>
        </mxCell>
        <mxCell id="nx0ZJGTLg9VTzelBkJrj-23" value="C2S_CLIENT_INVITE_ANSWER_REQ" style="endArrow=classic;html=1;rounded=0;fontSize=24;strokeColor=#FF0A0A;" edge="1" parent="7YSTlm0ZNrT-Q_bdGDma-1">
          <mxGeometry width="50" height="50" relative="1" as="geometry">
            <mxPoint x="130" y="920" as="sourcePoint" />
            <mxPoint x="1332" y="920" as="targetPoint" />
          </mxGeometry>
        </mxCell>
        <mxCell id="nx0ZJGTLg9VTzelBkJrj-24" value="유효한 친구가 아니라면&lt;br&gt;요청이 정상이 아님&lt;br&gt;유효한 친구라면&lt;br&gt;상대방에게 요청 보냄" style="text;html=1;align=center;verticalAlign=middle;resizable=0;points=[];autosize=1;strokeColor=none;fillColor=none;fontSize=24;fontColor=#FF3333;" vertex="1" parent="7YSTlm0ZNrT-Q_bdGDma-1">
          <mxGeometry x="1350" y="740" width="270" height="120" as="geometry" />
        </mxCell>
        <mxCell id="nx0ZJGTLg9VTzelBkJrj-25" value="S2C_CLIENT_INVITE_ANSWER_RES" style="endArrow=classic;html=1;rounded=0;fontSize=24;strokeColor=#FF0A0A;" edge="1" parent="7YSTlm0ZNrT-Q_bdGDma-1">
          <mxGeometry width="50" height="50" relative="1" as="geometry">
            <mxPoint x="1332" y="960" as="sourcePoint" />
            <mxPoint x="322" y="960" as="targetPoint" />
          </mxGeometry>
        </mxCell>
        <mxCell id="nx0ZJGTLg9VTzelBkJrj-26" value="C2S_CLIENT_START_REQ" style="endArrow=classic;html=1;rounded=0;fontSize=24;" edge="1" parent="7YSTlm0ZNrT-Q_bdGDma-1">
          <mxGeometry width="50" height="50" relative="1" as="geometry">
            <mxPoint x="322" y="1350" as="sourcePoint" />
            <mxPoint x="1332" y="1350" as="targetPoint" />
          </mxGeometry>
        </mxCell>
        <mxCell id="nx0ZJGTLg9VTzelBkJrj-27" value="S2C_CLIENT_START_RES" style="endArrow=classic;html=1;rounded=0;fontSize=24;" edge="1" parent="7YSTlm0ZNrT-Q_bdGDma-1">
          <mxGeometry width="50" height="50" relative="1" as="geometry">
            <mxPoint x="1332" y="1390" as="sourcePoint" />
            <mxPoint x="322" y="1390" as="targetPoint" />
          </mxGeometry>
        </mxCell>
        <mxCell id="nx0ZJGTLg9VTzelBkJrj-28" value="&lt;font color=&quot;#000000&quot;&gt;방장(초대를 한 유저)&lt;br&gt;이 시작을 누름&lt;br&gt;&lt;/font&gt;" style="text;html=1;align=center;verticalAlign=middle;resizable=0;points=[];autosize=1;strokeColor=none;fillColor=none;fontSize=24;fontColor=#FF3333;" vertex="1" parent="7YSTlm0ZNrT-Q_bdGDma-1">
          <mxGeometry x="60" y="1340" width="240" height="60" as="geometry" />
        </mxCell>
        <mxCell id="nx0ZJGTLg9VTzelBkJrj-29" value="난이도 정보" style="rounded=0;whiteSpace=wrap;html=1;fontSize=24;align=center;" vertex="1" parent="7YSTlm0ZNrT-Q_bdGDma-1">
          <mxGeometry x="357" y="1430" width="940" height="60" as="geometry" />
        </mxCell>
      </root>
    </mxGraphModel>
  </diagram>
  <diagram id="9X10kkUECGXpxRmeUz2S" name="Server-Client(H,I)">
    <mxGraphModel dx="2062" dy="1065" grid="1" gridSize="10" guides="1" tooltips="1" connect="1" arrows="1" fold="1" page="1" pageScale="1" pageWidth="1654" pageHeight="2336" math="0" shadow="0">
      <root>
        <mxCell id="2YYeZtI7_QjvNnfWtnuP-0" />
        <mxCell id="2YYeZtI7_QjvNnfWtnuP-1" parent="2YYeZtI7_QjvNnfWtnuP-0" />
        <mxCell id="PUKaOojx-DPWw87_FldC-0" value="I" style="edgeStyle=orthogonalEdgeStyle;rounded=0;orthogonalLoop=1;jettySize=auto;html=1;exitX=0;exitY=0.75;exitDx=0;exitDy=0;entryX=1;entryY=0.75;entryDx=0;entryDy=0;fontSize=24;" parent="2YYeZtI7_QjvNnfWtnuP-1" source="PUKaOojx-DPWw87_FldC-1" target="PUKaOojx-DPWw87_FldC-3" edge="1">
          <mxGeometry relative="1" as="geometry" />
        </mxCell>
        <mxCell id="PUKaOojx-DPWw87_FldC-1" value="Game Server" style="whiteSpace=wrap;html=1;aspect=fixed;fontStyle=1;fontSize=24;rounded=1;fillColor=#f8cecc;strokeColor=#b85450;gradientColor=#ffffff;" parent="2YYeZtI7_QjvNnfWtnuP-1" vertex="1">
          <mxGeometry x="1343" y="46" width="140" height="140" as="geometry" />
        </mxCell>
        <mxCell id="PUKaOojx-DPWw87_FldC-2" value="H" style="edgeStyle=orthogonalEdgeStyle;rounded=0;orthogonalLoop=1;jettySize=auto;html=1;exitX=1;exitY=0.25;exitDx=0;exitDy=0;entryX=0;entryY=0.25;entryDx=0;entryDy=0;fontSize=24;" parent="2YYeZtI7_QjvNnfWtnuP-1" source="PUKaOojx-DPWw87_FldC-3" target="PUKaOojx-DPWw87_FldC-1" edge="1">
          <mxGeometry relative="1" as="geometry" />
        </mxCell>
        <mxCell id="PUKaOojx-DPWw87_FldC-3" value="Game Client A" style="whiteSpace=wrap;html=1;aspect=fixed;fontStyle=1;fontSize=24;fillColor=#d5e8d4;strokeColor=#82b366;gradientColor=#ffffff;rounded=1;shadow=0;sketch=0;glass=0;" parent="2YYeZtI7_QjvNnfWtnuP-1" vertex="1">
          <mxGeometry x="343" y="46" width="140" height="140" as="geometry" />
        </mxCell>
        <mxCell id="PUKaOojx-DPWw87_FldC-7" value="" style="endArrow=none;html=1;rounded=0;fontSize=24;fontColor=#4D9900;entryX=0.5;entryY=1;entryDx=0;entryDy=0;" parent="2YYeZtI7_QjvNnfWtnuP-1" target="PUKaOojx-DPWw87_FldC-3" edge="1">
          <mxGeometry width="50" height="50" relative="1" as="geometry">
            <mxPoint x="413" y="6600" as="sourcePoint" />
            <mxPoint x="413" y="236" as="targetPoint" />
          </mxGeometry>
        </mxCell>
        <mxCell id="PUKaOojx-DPWw87_FldC-8" value="" style="endArrow=none;html=1;rounded=0;fontSize=24;fontColor=#4D9900;entryX=0.5;entryY=1;entryDx=0;entryDy=0;" parent="2YYeZtI7_QjvNnfWtnuP-1" target="PUKaOojx-DPWw87_FldC-1" edge="1">
          <mxGeometry width="50" height="50" relative="1" as="geometry">
            <mxPoint x="1413" y="6600" as="sourcePoint" />
            <mxPoint x="1413" y="236" as="targetPoint" />
          </mxGeometry>
        </mxCell>
        <mxCell id="n-X315men1zFw-0qJKVE-0" value="&lt;font color=&quot;#000000&quot;&gt;C2S_LOADING_COMPLETE&lt;/font&gt;" style="endArrow=classic;html=1;rounded=0;fontSize=24;fontColor=#4D9900;" parent="2YYeZtI7_QjvNnfWtnuP-1" edge="1">
          <mxGeometry width="50" height="50" relative="1" as="geometry">
            <mxPoint x="416" y="690" as="sourcePoint" />
            <mxPoint x="1406" y="690" as="targetPoint" />
          </mxGeometry>
        </mxCell>
        <mxCell id="n-X315men1zFw-0qJKVE-3" value="Game Client B" style="whiteSpace=wrap;html=1;aspect=fixed;fontStyle=1;fontSize=24;fillColor=#d5e8d4;strokeColor=#82b366;gradientColor=#ffffff;rounded=1;shadow=0;sketch=0;glass=0;" parent="2YYeZtI7_QjvNnfWtnuP-1" vertex="1">
          <mxGeometry x="176" y="46" width="140" height="140" as="geometry" />
        </mxCell>
        <mxCell id="n-X315men1zFw-0qJKVE-8" value="S2C_START_GAME" style="endArrow=classic;html=1;rounded=0;fontSize=24;fontColor=#000000;" parent="2YYeZtI7_QjvNnfWtnuP-1" edge="1">
          <mxGeometry width="50" height="50" relative="1" as="geometry">
            <mxPoint x="1413" y="730" as="sourcePoint" />
            <mxPoint x="413" y="730" as="targetPoint" />
          </mxGeometry>
        </mxCell>
        <mxCell id="n-X315men1zFw-0qJKVE-10" value="" style="endArrow=none;html=1;rounded=0;fontSize=24;fontColor=#4D9900;" parent="2YYeZtI7_QjvNnfWtnuP-1" target="n-X315men1zFw-0qJKVE-3" edge="1">
          <mxGeometry width="50" height="50" relative="1" as="geometry">
            <mxPoint x="246" y="6600" as="sourcePoint" />
            <mxPoint x="246" y="190" as="targetPoint" />
          </mxGeometry>
        </mxCell>
        <mxCell id="n-X315men1zFw-0qJKVE-12" value="" style="endArrow=classic;html=1;rounded=0;fontSize=24;fontColor=#000000;" parent="2YYeZtI7_QjvNnfWtnuP-1" edge="1">
          <mxGeometry width="50" height="50" relative="1" as="geometry">
            <mxPoint x="406" y="730" as="sourcePoint" />
            <mxPoint x="246" y="730" as="targetPoint" />
          </mxGeometry>
        </mxCell>
        <mxCell id="n-X315men1zFw-0qJKVE-14" value="Game Logic Start" style="whiteSpace=wrap;html=1;aspect=fixed;fontStyle=1;fontSize=24;fillColor=#fff2cc;strokeColor=#d6b656;rounded=1;shadow=0;sketch=0;glass=0;gradientColor=#ffffff;" parent="2YYeZtI7_QjvNnfWtnuP-1" vertex="1">
          <mxGeometry x="1446" y="710" width="140" height="140" as="geometry" />
        </mxCell>
        <mxCell id="n-X315men1zFw-0qJKVE-17" value="마나석 타입 및 Spawn Point / 현재 시간 / 보스 타입 / Monster,Boss Spawn Point&amp;nbsp;" style="rounded=0;whiteSpace=wrap;html=1;shadow=0;glass=0;sketch=0;fontSize=24;fontColor=#000000;gradientColor=#ffffff;" parent="2YYeZtI7_QjvNnfWtnuP-1" vertex="1">
          <mxGeometry x="426" y="770" width="980" height="60" as="geometry" />
        </mxCell>
        <mxCell id="n-X315men1zFw-0qJKVE-19" value="C2S_PLAYER_MOVE_REQ" style="endArrow=classic;html=1;rounded=0;fontSize=24;fontColor=#000000;" parent="2YYeZtI7_QjvNnfWtnuP-1" edge="1">
          <mxGeometry width="50" height="50" relative="1" as="geometry">
            <mxPoint x="418" y="930" as="sourcePoint" />
            <mxPoint x="1408" y="930" as="targetPoint" />
          </mxGeometry>
        </mxCell>
        <mxCell id="n-X315men1zFw-0qJKVE-20" value="S2C_PLAYER_MOVE_RES" style="endArrow=classic;html=1;rounded=0;fontSize=24;fontColor=#000000;" parent="2YYeZtI7_QjvNnfWtnuP-1" edge="1">
          <mxGeometry width="50" height="50" relative="1" as="geometry">
            <mxPoint x="1413" y="1050" as="sourcePoint" />
            <mxPoint x="413" y="1050" as="targetPoint" />
          </mxGeometry>
        </mxCell>
        <mxCell id="n-X315men1zFw-0qJKVE-22" value="" style="endArrow=classic;html=1;rounded=0;fontSize=24;fontColor=#000000;" parent="2YYeZtI7_QjvNnfWtnuP-1" edge="1">
          <mxGeometry width="50" height="50" relative="1" as="geometry">
            <mxPoint x="406" y="1050" as="sourcePoint" />
            <mxPoint x="246" y="1050" as="targetPoint" />
          </mxGeometry>
        </mxCell>
        <mxCell id="n-X315men1zFw-0qJKVE-23" value="방향 Vector / 속도 / 현재 Position" style="rounded=0;whiteSpace=wrap;html=1;shadow=0;glass=0;sketch=0;fontSize=24;fontColor=#000000;gradientColor=#ffffff;" parent="2YYeZtI7_QjvNnfWtnuP-1" vertex="1">
          <mxGeometry x="423" y="964" width="980" height="60" as="geometry" />
        </mxCell>
        <mxCell id="n-X315men1zFw-0qJKVE-31" value="데이터의 무결성 FLAG (True / False)&lt;br&gt;&lt;div style=&quot;text-align: left&quot;&gt;&lt;span&gt;Case True&amp;nbsp; &lt;span style=&quot;white-space: pre&quot;&gt; &lt;/span&gt;=&amp;gt; 상대방의 위치 / 속도 / 방향 Vector &amp;amp; 드론 방향 Vector&lt;/span&gt;&lt;/div&gt;&lt;div style=&quot;text-align: left&quot;&gt;&lt;span&gt;Case False &lt;span style=&quot;white-space: pre&quot;&gt; &lt;/span&gt;=&amp;gt; 나의 이전 프레임 &amp;amp; 상대방 위치 / 속도 / 방향 Vector 와 드론 방향 Vector&lt;/span&gt;&lt;/div&gt;" style="rounded=0;whiteSpace=wrap;html=1;shadow=0;glass=0;sketch=0;fontSize=24;fontColor=#000000;gradientColor=#ffffff;" parent="2YYeZtI7_QjvNnfWtnuP-1" vertex="1">
          <mxGeometry x="423" y="1080" width="980" height="110" as="geometry" />
        </mxCell>
        <mxCell id="Vvm_w3MDFeRZNejcBClu-2" value="S2C_PLAYER_MINE_END" style="endArrow=classic;html=1;rounded=0;fontSize=24;fontColor=#000000;" parent="2YYeZtI7_QjvNnfWtnuP-1" edge="1">
          <mxGeometry width="50" height="50" relative="1" as="geometry">
            <mxPoint x="1411.5" y="1840" as="sourcePoint" />
            <mxPoint x="411.5" y="1840" as="targetPoint" />
          </mxGeometry>
        </mxCell>
        <mxCell id="Vvm_w3MDFeRZNejcBClu-3" value="" style="endArrow=classic;html=1;rounded=0;fontSize=24;fontColor=#000000;" parent="2YYeZtI7_QjvNnfWtnuP-1" edge="1">
          <mxGeometry width="50" height="50" relative="1" as="geometry">
            <mxPoint x="404.5" y="1840" as="sourcePoint" />
            <mxPoint x="244.5" y="1840" as="targetPoint" />
          </mxGeometry>
        </mxCell>
        <mxCell id="Vvm_w3MDFeRZNejcBClu-8" value="" style="endArrow=classic;html=1;rounded=0;fontSize=24;fontColor=#000000;" parent="2YYeZtI7_QjvNnfWtnuP-1" edge="1">
          <mxGeometry width="50" height="50" relative="1" as="geometry">
            <mxPoint x="246" y="930" as="sourcePoint" />
            <mxPoint x="406" y="930" as="targetPoint" />
          </mxGeometry>
        </mxCell>
        <mxCell id="Vvm_w3MDFeRZNejcBClu-9" value="" style="endArrow=classic;html=1;rounded=0;fontSize=24;fontColor=#000000;" parent="2YYeZtI7_QjvNnfWtnuP-1" edge="1">
          <mxGeometry width="50" height="50" relative="1" as="geometry">
            <mxPoint x="246" y="690" as="sourcePoint" />
            <mxPoint x="406" y="690" as="targetPoint" />
          </mxGeometry>
        </mxCell>
        <mxCell id="Vvm_w3MDFeRZNejcBClu-11" value="C2S_PLAYER_ATTACK_START_REQ" style="endArrow=classic;html=1;rounded=0;fontSize=24;fontColor=#000000;" parent="2YYeZtI7_QjvNnfWtnuP-1" edge="1">
          <mxGeometry width="50" height="50" relative="1" as="geometry">
            <mxPoint x="417.5" y="1480" as="sourcePoint" />
            <mxPoint x="1408.5" y="1480" as="targetPoint" />
          </mxGeometry>
        </mxCell>
        <mxCell id="Vvm_w3MDFeRZNejcBClu-12" value="" style="endArrow=classic;html=1;rounded=0;fontSize=24;fontColor=#000000;" parent="2YYeZtI7_QjvNnfWtnuP-1" edge="1">
          <mxGeometry width="50" height="50" relative="1" as="geometry">
            <mxPoint x="247.5" y="1480" as="sourcePoint" />
            <mxPoint x="407.5" y="1480" as="targetPoint" />
          </mxGeometry>
        </mxCell>
        <mxCell id="Vvm_w3MDFeRZNejcBClu-19" value="현재 Attack 모션의 Number" style="rounded=0;whiteSpace=wrap;html=1;shadow=0;glass=0;sketch=0;fontSize=24;fontColor=#000000;gradientColor=#ffffff;" parent="2YYeZtI7_QjvNnfWtnuP-1" vertex="1">
          <mxGeometry x="425" y="1510" width="980" height="60" as="geometry" />
        </mxCell>
        <mxCell id="xt_PsiV6YAQrIr_zFN4M-0" value="Monster 혹은 자원(Mana석)이 죽었는지 여부 Flag&lt;br&gt;&lt;div style=&quot;text-align: left&quot;&gt;Case True&lt;span style=&quot;white-space: pre&quot;&gt; &lt;/span&gt;=&amp;gt; 죽은 Monster Animation 을 Die로 한다.&lt;/div&gt;&lt;div style=&quot;text-align: left&quot;&gt;Case False&lt;span style=&quot;white-space: pre&quot;&gt; &lt;/span&gt;=&amp;gt; 맞은 Monster Animation 을 Hit로 한다.&lt;/div&gt;" style="rounded=0;whiteSpace=wrap;html=1;shadow=0;glass=0;sketch=0;fontSize=24;fontColor=#000000;gradientColor=#ffffff;" parent="2YYeZtI7_QjvNnfWtnuP-1" vertex="1">
          <mxGeometry x="423" y="1650" width="980" height="100" as="geometry" />
        </mxCell>
        <mxCell id="xt_PsiV6YAQrIr_zFN4M-5" value="S2C_PLAYER_ATTACK_START_RES" style="endArrow=classic;html=1;rounded=0;fontSize=24;fontColor=#000000;" parent="2YYeZtI7_QjvNnfWtnuP-1" edge="1">
          <mxGeometry width="50" height="50" relative="1" as="geometry">
            <mxPoint x="1411.5" y="1598" as="sourcePoint" />
            <mxPoint x="411.5" y="1598" as="targetPoint" />
          </mxGeometry>
        </mxCell>
        <mxCell id="xt_PsiV6YAQrIr_zFN4M-6" value="" style="endArrow=classic;html=1;rounded=0;fontSize=24;fontColor=#000000;" parent="2YYeZtI7_QjvNnfWtnuP-1" edge="1">
          <mxGeometry width="50" height="50" relative="1" as="geometry">
            <mxPoint x="404.5" y="1598" as="sourcePoint" />
            <mxPoint x="244.5" y="1598" as="targetPoint" />
          </mxGeometry>
        </mxCell>
        <mxCell id="xt_PsiV6YAQrIr_zFN4M-7" value="S2C_PLAYER_CC_DOWN" style="endArrow=classic;html=1;rounded=0;fontSize=24;fontColor=#000000;" parent="2YYeZtI7_QjvNnfWtnuP-1" edge="1">
          <mxGeometry width="50" height="50" relative="1" as="geometry">
            <mxPoint x="1411.5" y="2815" as="sourcePoint" />
            <mxPoint x="411.5" y="2815" as="targetPoint" />
          </mxGeometry>
        </mxCell>
        <mxCell id="xt_PsiV6YAQrIr_zFN4M-8" value="" style="endArrow=classic;html=1;rounded=0;fontSize=24;fontColor=#000000;" parent="2YYeZtI7_QjvNnfWtnuP-1" edge="1">
          <mxGeometry width="50" height="50" relative="1" as="geometry">
            <mxPoint x="404.5" y="2815" as="sourcePoint" />
            <mxPoint x="244.5" y="2815" as="targetPoint" />
          </mxGeometry>
        </mxCell>
        <mxCell id="xt_PsiV6YAQrIr_zFN4M-9" value="S2C_PLAYER_HIT" style="endArrow=classic;html=1;rounded=0;fontSize=24;fontColor=#000000;" parent="2YYeZtI7_QjvNnfWtnuP-1" edge="1">
          <mxGeometry width="50" height="50" relative="1" as="geometry">
            <mxPoint x="1411.5" y="3475" as="sourcePoint" />
            <mxPoint x="411.5" y="3475" as="targetPoint" />
          </mxGeometry>
        </mxCell>
        <mxCell id="xt_PsiV6YAQrIr_zFN4M-10" value="" style="endArrow=classic;html=1;rounded=0;fontSize=24;fontColor=#000000;" parent="2YYeZtI7_QjvNnfWtnuP-1" edge="1">
          <mxGeometry width="50" height="50" relative="1" as="geometry">
            <mxPoint x="404.5" y="3475" as="sourcePoint" />
            <mxPoint x="244.5" y="3475" as="targetPoint" />
          </mxGeometry>
        </mxCell>
        <mxCell id="xt_PsiV6YAQrIr_zFN4M-17" value="S2C_PLAYER_DEAD" style="endArrow=classic;html=1;rounded=0;fontSize=24;fontColor=#000000;" parent="2YYeZtI7_QjvNnfWtnuP-1" edge="1">
          <mxGeometry width="50" height="50" relative="1" as="geometry">
            <mxPoint x="1411.5" y="3515" as="sourcePoint" />
            <mxPoint x="411.5" y="3515" as="targetPoint" />
          </mxGeometry>
        </mxCell>
        <mxCell id="xt_PsiV6YAQrIr_zFN4M-18" value="" style="endArrow=classic;html=1;rounded=0;fontSize=24;fontColor=#000000;" parent="2YYeZtI7_QjvNnfWtnuP-1" edge="1">
          <mxGeometry width="50" height="50" relative="1" as="geometry">
            <mxPoint x="404.5" y="3515" as="sourcePoint" />
            <mxPoint x="244.5" y="3515" as="targetPoint" />
          </mxGeometry>
        </mxCell>
        <mxCell id="xt_PsiV6YAQrIr_zFN4M-19" value="살아날 위치 / HP&amp;nbsp;" style="rounded=0;whiteSpace=wrap;html=1;shadow=0;glass=0;sketch=0;fontSize=24;fontColor=#000000;gradientColor=#ffffff;" parent="2YYeZtI7_QjvNnfWtnuP-1" vertex="1">
          <mxGeometry x="428" y="3585" width="980" height="60" as="geometry" />
        </mxCell>
        <mxCell id="xt_PsiV6YAQrIr_zFN4M-20" value="S2C_GLOBAL_TIME" style="endArrow=classic;html=1;rounded=0;fontSize=24;fontColor=#000000;" parent="2YYeZtI7_QjvNnfWtnuP-1" edge="1">
          <mxGeometry width="50" height="50" relative="1" as="geometry">
            <mxPoint x="1413" y="1230" as="sourcePoint" />
            <mxPoint x="413" y="1230" as="targetPoint" />
          </mxGeometry>
        </mxCell>
        <mxCell id="xt_PsiV6YAQrIr_zFN4M-21" value="" style="endArrow=classic;html=1;rounded=0;fontSize=24;fontColor=#000000;" parent="2YYeZtI7_QjvNnfWtnuP-1" edge="1">
          <mxGeometry width="50" height="50" relative="1" as="geometry">
            <mxPoint x="406" y="1230" as="sourcePoint" />
            <mxPoint x="246" y="1230" as="targetPoint" />
          </mxGeometry>
        </mxCell>
        <mxCell id="xt_PsiV6YAQrIr_zFN4M-22" value="현재 STAGE / 몬스터 Spawn 주기 / 보스 타입 / Door의 HP 및 재생 여부" style="rounded=0;whiteSpace=wrap;html=1;shadow=0;glass=0;sketch=0;fontSize=24;fontColor=#000000;gradientColor=#ffffff;" parent="2YYeZtI7_QjvNnfWtnuP-1" vertex="1">
          <mxGeometry x="426" y="1353" width="980" height="60" as="geometry" />
        </mxCell>
        <mxCell id="xt_PsiV6YAQrIr_zFN4M-23" value="S2C_STAGE_DATA" style="endArrow=classic;html=1;rounded=0;fontSize=24;fontColor=#000000;" parent="2YYeZtI7_QjvNnfWtnuP-1" edge="1">
          <mxGeometry width="50" height="50" relative="1" as="geometry">
            <mxPoint x="1413" y="1323" as="sourcePoint" />
            <mxPoint x="413" y="1323" as="targetPoint" />
          </mxGeometry>
        </mxCell>
        <mxCell id="xt_PsiV6YAQrIr_zFN4M-24" value="" style="endArrow=classic;html=1;rounded=0;fontSize=24;fontColor=#000000;" parent="2YYeZtI7_QjvNnfWtnuP-1" edge="1">
          <mxGeometry width="50" height="50" relative="1" as="geometry">
            <mxPoint x="406" y="1323" as="sourcePoint" />
            <mxPoint x="246" y="1323" as="targetPoint" />
          </mxGeometry>
        </mxCell>
        <mxCell id="xt_PsiV6YAQrIr_zFN4M-26" value="하루가 지났을 때 &lt;br&gt;넘어갈 데이터들" style="text;html=1;align=center;verticalAlign=middle;resizable=0;points=[];autosize=1;strokeColor=none;fillColor=none;fontSize=24;fontColor=#000000;" parent="2YYeZtI7_QjvNnfWtnuP-1" vertex="1">
          <mxGeometry x="1426" y="1303" width="200" height="60" as="geometry" />
        </mxCell>
        <mxCell id="xt_PsiV6YAQrIr_zFN4M-27" value="C2S_PLAYER_UPGRADE" style="endArrow=classic;html=1;rounded=0;fontSize=24;fontColor=#000000;strokeColor=#FF0000;" parent="2YYeZtI7_QjvNnfWtnuP-1" edge="1">
          <mxGeometry width="50" height="50" relative="1" as="geometry">
            <mxPoint x="415.5" y="2020" as="sourcePoint" />
            <mxPoint x="1406.5" y="2020" as="targetPoint" />
          </mxGeometry>
        </mxCell>
        <mxCell id="xt_PsiV6YAQrIr_zFN4M-28" value="" style="endArrow=classic;html=1;rounded=0;fontSize=24;fontColor=#000000;strokeColor=#0000CC;" parent="2YYeZtI7_QjvNnfWtnuP-1" edge="1">
          <mxGeometry width="50" height="50" relative="1" as="geometry">
            <mxPoint x="245.5" y="2100" as="sourcePoint" />
            <mxPoint x="536" y="2020" as="targetPoint" />
            <Array as="points">
              <mxPoint x="536" y="2100" />
            </Array>
          </mxGeometry>
        </mxCell>
        <mxCell id="xt_PsiV6YAQrIr_zFN4M-29" value="S2C_PLAYER_UPGRADE" style="endArrow=classic;html=1;rounded=0;fontSize=24;fontColor=#000000;strokeColor=#FF0000;" parent="2YYeZtI7_QjvNnfWtnuP-1" edge="1">
          <mxGeometry width="50" height="50" relative="1" as="geometry">
            <mxPoint x="1409.5" y="2150" as="sourcePoint" />
            <mxPoint x="246" y="2150" as="targetPoint" />
          </mxGeometry>
        </mxCell>
        <mxCell id="xt_PsiV6YAQrIr_zFN4M-31" value="" style="endArrow=classic;html=1;rounded=0;fontSize=24;fontColor=#000000;strokeColor=#0000CC;" parent="2YYeZtI7_QjvNnfWtnuP-1" edge="1">
          <mxGeometry width="50" height="50" relative="1" as="geometry">
            <mxPoint x="536" y="2150" as="sourcePoint" />
            <mxPoint x="416" y="2240" as="targetPoint" />
            <Array as="points">
              <mxPoint x="536" y="2240" />
            </Array>
          </mxGeometry>
        </mxCell>
        <mxCell id="xt_PsiV6YAQrIr_zFN4M-32" value="현재 강화 정보 보내기" style="rounded=0;whiteSpace=wrap;html=1;shadow=0;glass=0;sketch=0;fontSize=24;fontColor=#000000;gradientColor=#ffffff;" parent="2YYeZtI7_QjvNnfWtnuP-1" vertex="1">
          <mxGeometry x="556" y="2050" width="840" height="60" as="geometry" />
        </mxCell>
        <mxCell id="xt_PsiV6YAQrIr_zFN4M-33" value="다른 플레이어의 강화 정보 보내기" style="rounded=0;whiteSpace=wrap;html=1;shadow=0;glass=0;sketch=0;fontSize=24;fontColor=#000000;gradientColor=#ffffff;" parent="2YYeZtI7_QjvNnfWtnuP-1" vertex="1">
          <mxGeometry x="556" y="2180" width="840" height="60" as="geometry" />
        </mxCell>
        <mxCell id="xt_PsiV6YAQrIr_zFN4M-34" value="클라이언트에서 &lt;br&gt;장비강화를 했을 때" style="text;html=1;align=center;verticalAlign=middle;resizable=0;points=[];autosize=1;strokeColor=none;fillColor=none;fontSize=24;fontColor=#000000;" parent="2YYeZtI7_QjvNnfWtnuP-1" vertex="1">
          <mxGeometry x="16" y="2000" width="220" height="60" as="geometry" />
        </mxCell>
        <mxCell id="xt_PsiV6YAQrIr_zFN4M-35" value="C2S_PLAYER_EVADE_REQ" style="endArrow=classic;html=1;rounded=0;fontSize=24;fontColor=#000000;strokeColor=#000000;" parent="2YYeZtI7_QjvNnfWtnuP-1" edge="1">
          <mxGeometry x="0.001" width="50" height="50" relative="1" as="geometry">
            <mxPoint x="415.5" y="2325" as="sourcePoint" />
            <mxPoint x="1406.5" y="2325" as="targetPoint" />
            <mxPoint as="offset" />
          </mxGeometry>
        </mxCell>
        <mxCell id="xt_PsiV6YAQrIr_zFN4M-37" value="S2C_PLAYER_EVADE_RES" style="endArrow=classic;html=1;rounded=0;fontSize=24;fontColor=#000000;strokeColor=#000000;" parent="2YYeZtI7_QjvNnfWtnuP-1" edge="1">
          <mxGeometry width="50" height="50" relative="1" as="geometry">
            <mxPoint x="1409.5" y="2455" as="sourcePoint" />
            <mxPoint x="416" y="2455" as="targetPoint" />
          </mxGeometry>
        </mxCell>
        <mxCell id="xt_PsiV6YAQrIr_zFN4M-39" value="회피 방향 / 회피 후 Position 정보를 넘김" style="rounded=0;whiteSpace=wrap;html=1;shadow=0;glass=0;sketch=0;fontSize=24;fontColor=#000000;gradientColor=#ffffff;" parent="2YYeZtI7_QjvNnfWtnuP-1" vertex="1">
          <mxGeometry x="426" y="2355" width="970" height="60" as="geometry" />
        </mxCell>
        <mxCell id="xt_PsiV6YAQrIr_zFN4M-40" value="Animation 정보 및 회피 후 Position" style="rounded=0;whiteSpace=wrap;html=1;shadow=0;glass=0;sketch=0;fontSize=24;fontColor=#000000;gradientColor=#ffffff;" parent="2YYeZtI7_QjvNnfWtnuP-1" vertex="1">
          <mxGeometry x="426" y="2485" width="970" height="60" as="geometry" />
        </mxCell>
        <mxCell id="xt_PsiV6YAQrIr_zFN4M-41" value="플레이어가&lt;br&gt;회피기동 시" style="text;html=1;align=center;verticalAlign=middle;resizable=0;points=[];autosize=1;strokeColor=none;fillColor=none;fontSize=24;fontColor=#000000;" parent="2YYeZtI7_QjvNnfWtnuP-1" vertex="1">
          <mxGeometry x="76" y="2315" width="140" height="60" as="geometry" />
        </mxCell>
        <mxCell id="xt_PsiV6YAQrIr_zFN4M-42" value="" style="endArrow=classic;html=1;rounded=0;fontSize=24;fontColor=#000000;" parent="2YYeZtI7_QjvNnfWtnuP-1" edge="1">
          <mxGeometry width="50" height="50" relative="1" as="geometry">
            <mxPoint x="410.5" y="2455" as="sourcePoint" />
            <mxPoint x="250.5" y="2455" as="targetPoint" />
          </mxGeometry>
        </mxCell>
        <mxCell id="xt_PsiV6YAQrIr_zFN4M-43" value="" style="endArrow=classic;html=1;rounded=0;fontSize=24;fontColor=#000000;" parent="2YYeZtI7_QjvNnfWtnuP-1" edge="1">
          <mxGeometry width="50" height="50" relative="1" as="geometry">
            <mxPoint x="246" y="2325" as="sourcePoint" />
            <mxPoint x="406" y="2325" as="targetPoint" />
          </mxGeometry>
        </mxCell>
        <mxCell id="xt_PsiV6YAQrIr_zFN4M-45" value="C2S_PLAYER_SPEND_ITEM_REQ" style="endArrow=classic;html=1;rounded=0;fontSize=24;fontColor=#000000;strokeColor=#FF0000;fillColor=#f8cecc;" parent="2YYeZtI7_QjvNnfWtnuP-1" edge="1">
          <mxGeometry x="0.001" width="50" height="50" relative="1" as="geometry">
            <mxPoint x="415.25" y="2615" as="sourcePoint" />
            <mxPoint x="1406.25" y="2615" as="targetPoint" />
            <mxPoint as="offset" />
          </mxGeometry>
        </mxCell>
        <mxCell id="xt_PsiV6YAQrIr_zFN4M-46" value="" style="endArrow=classic;html=1;rounded=0;fontSize=24;fontColor=#000000;fillColor=#dae8fc;strokeColor=#6c8ebf;" parent="2YYeZtI7_QjvNnfWtnuP-1" edge="1">
          <mxGeometry width="50" height="50" relative="1" as="geometry">
            <mxPoint x="245.75" y="2615" as="sourcePoint" />
            <mxPoint x="405.75" y="2615" as="targetPoint" />
          </mxGeometry>
        </mxCell>
        <mxCell id="xt_PsiV6YAQrIr_zFN4M-47" value="S2C_PLAYER_SPEND_ITEM_RES" style="endArrow=classic;html=1;rounded=0;fontSize=24;fontColor=#000000;strokeColor=#FF0000;" parent="2YYeZtI7_QjvNnfWtnuP-1" edge="1">
          <mxGeometry width="50" height="50" relative="1" as="geometry">
            <mxPoint x="1406" y="2665" as="sourcePoint" />
            <mxPoint x="412.5" y="2665" as="targetPoint" />
          </mxGeometry>
        </mxCell>
        <mxCell id="xt_PsiV6YAQrIr_zFN4M-48" value="" style="endArrow=classic;html=1;rounded=0;fontSize=24;fontColor=#000000;fillColor=#dae8fc;strokeColor=#6c8ebf;" parent="2YYeZtI7_QjvNnfWtnuP-1" edge="1">
          <mxGeometry width="50" height="50" relative="1" as="geometry">
            <mxPoint x="409" y="2665" as="sourcePoint" />
            <mxPoint x="249" y="2665" as="targetPoint" />
          </mxGeometry>
        </mxCell>
        <mxCell id="xt_PsiV6YAQrIr_zFN4M-49" value="마나석 등 소모 아이템 교환 후 남은 아이템 잔량 정보&lt;br&gt;포션 사용시를 위한 현재 HP 정보" style="rounded=0;whiteSpace=wrap;html=1;shadow=0;glass=0;sketch=0;fontSize=24;fontColor=#000000;gradientColor=#ffffff;" parent="2YYeZtI7_QjvNnfWtnuP-1" vertex="1">
          <mxGeometry x="423" y="2695" width="970" height="60" as="geometry" />
        </mxCell>
        <mxCell id="xt_PsiV6YAQrIr_zFN4M-50" value="플레이어가&lt;br&gt;자판기 이용 및&lt;br&gt;포션 사용시" style="text;html=1;align=center;verticalAlign=middle;resizable=0;points=[];autosize=1;strokeColor=none;fillColor=none;fontSize=24;fontColor=#000000;" parent="2YYeZtI7_QjvNnfWtnuP-1" vertex="1">
          <mxGeometry x="71" y="2580" width="170" height="90" as="geometry" />
        </mxCell>
        <mxCell id="xt_PsiV6YAQrIr_zFN4M-52" value="몬스터 / 보스가&lt;br&gt;다운기 및 넉백&lt;br&gt;을 사용시" style="text;html=1;align=center;verticalAlign=middle;resizable=0;points=[];autosize=1;strokeColor=none;fillColor=none;fontSize=24;fontColor=#000000;" parent="2YYeZtI7_QjvNnfWtnuP-1" vertex="1">
          <mxGeometry x="1421" y="2805" width="180" height="90" as="geometry" />
        </mxCell>
        <mxCell id="xt_PsiV6YAQrIr_zFN4M-53" value="S2C_PLAYER_CC_KNOCKBACK" style="endArrow=classic;html=1;rounded=0;fontSize=24;fontColor=#000000;" parent="2YYeZtI7_QjvNnfWtnuP-1" edge="1">
          <mxGeometry width="50" height="50" relative="1" as="geometry">
            <mxPoint x="1411.5" y="2859" as="sourcePoint" />
            <mxPoint x="411.5" y="2859" as="targetPoint" />
          </mxGeometry>
        </mxCell>
        <mxCell id="xt_PsiV6YAQrIr_zFN4M-54" value="" style="endArrow=classic;html=1;rounded=0;fontSize=24;fontColor=#000000;" parent="2YYeZtI7_QjvNnfWtnuP-1" edge="1">
          <mxGeometry width="50" height="50" relative="1" as="geometry">
            <mxPoint x="404.5" y="2859" as="sourcePoint" />
            <mxPoint x="244.5" y="2859" as="targetPoint" />
          </mxGeometry>
        </mxCell>
        <mxCell id="xt_PsiV6YAQrIr_zFN4M-56" value="Animation 정보 및 Player 정보 (HP, 맞은후 Position 등)" style="rounded=0;whiteSpace=wrap;html=1;shadow=0;glass=0;sketch=0;fontSize=24;fontColor=#000000;gradientColor=#ffffff;" parent="2YYeZtI7_QjvNnfWtnuP-1" vertex="1">
          <mxGeometry x="428" y="2895" width="970" height="60" as="geometry" />
        </mxCell>
        <mxCell id="xt_PsiV6YAQrIr_zFN4M-59" value="C2S_DRONE_DETACHABLE_REQ" style="endArrow=classic;html=1;rounded=0;fontSize=24;fontColor=#000000;" parent="2YYeZtI7_QjvNnfWtnuP-1" edge="1">
          <mxGeometry width="50" height="50" relative="1" as="geometry">
            <mxPoint x="416" y="3850" as="sourcePoint" />
            <mxPoint x="1407" y="3850" as="targetPoint" />
          </mxGeometry>
        </mxCell>
        <mxCell id="xt_PsiV6YAQrIr_zFN4M-60" value="S2C_DRONE_DETACHABLE_RES" style="endArrow=classic;html=1;rounded=0;fontSize=24;fontColor=#000000;" parent="2YYeZtI7_QjvNnfWtnuP-1" edge="1">
          <mxGeometry width="50" height="50" relative="1" as="geometry">
            <mxPoint x="1411.5" y="3985" as="sourcePoint" />
            <mxPoint x="411.5" y="3985" as="targetPoint" />
          </mxGeometry>
        </mxCell>
        <mxCell id="xt_PsiV6YAQrIr_zFN4M-61" value="" style="endArrow=classic;html=1;rounded=0;fontSize=24;fontColor=#000000;" parent="2YYeZtI7_QjvNnfWtnuP-1" edge="1">
          <mxGeometry width="50" height="50" relative="1" as="geometry">
            <mxPoint x="404.5" y="3985" as="sourcePoint" />
            <mxPoint x="244.5" y="3985" as="targetPoint" />
          </mxGeometry>
        </mxCell>
        <mxCell id="xt_PsiV6YAQrIr_zFN4M-62" value="" style="endArrow=classic;html=1;rounded=0;fontSize=24;fontColor=#000000;" parent="2YYeZtI7_QjvNnfWtnuP-1" edge="1">
          <mxGeometry width="50" height="50" relative="1" as="geometry">
            <mxPoint x="246" y="3850" as="sourcePoint" />
            <mxPoint x="406" y="3850" as="targetPoint" />
          </mxGeometry>
        </mxCell>
        <mxCell id="xt_PsiV6YAQrIr_zFN4M-63" value="플레이어가 드론을 &lt;br&gt;장착/해제 시" style="text;html=1;align=center;verticalAlign=middle;resizable=0;points=[];autosize=1;strokeColor=none;fillColor=none;fontSize=24;fontColor=#000000;" parent="2YYeZtI7_QjvNnfWtnuP-1" vertex="1">
          <mxGeometry x="41" y="3845" width="210" height="60" as="geometry" />
        </mxCell>
        <mxCell id="xt_PsiV6YAQrIr_zFN4M-64" value="드론의 장착 가능 여부 및 Animation 과 드론 Position 정보 그리고, 남은 마나량, &lt;br&gt;부서졌는지 여부" style="rounded=0;whiteSpace=wrap;html=1;shadow=0;glass=0;sketch=0;fontSize=24;fontColor=#000000;gradientColor=#ffffff;" parent="2YYeZtI7_QjvNnfWtnuP-1" vertex="1">
          <mxGeometry x="428" y="4015" width="980" height="60" as="geometry" />
        </mxCell>
        <mxCell id="xt_PsiV6YAQrIr_zFN4M-70" value="드론의 Type 도 같이 보내줌 (드론이 여러종류일 수 있음)" style="rounded=0;whiteSpace=wrap;html=1;shadow=0;glass=0;sketch=0;fontSize=24;fontColor=#000000;gradientColor=#ffffff;" parent="2YYeZtI7_QjvNnfWtnuP-1" vertex="1">
          <mxGeometry x="426" y="3875" width="980" height="60" as="geometry" />
        </mxCell>
        <mxCell id="xt_PsiV6YAQrIr_zFN4M-71" value="S2C_DRONE_DESTROY" style="endArrow=classic;html=1;rounded=0;fontSize=24;fontColor=#000000;" parent="2YYeZtI7_QjvNnfWtnuP-1" edge="1">
          <mxGeometry width="50" height="50" relative="1" as="geometry">
            <mxPoint x="1413" y="4145" as="sourcePoint" />
            <mxPoint x="413" y="4145" as="targetPoint" />
          </mxGeometry>
        </mxCell>
        <mxCell id="xt_PsiV6YAQrIr_zFN4M-72" value="" style="endArrow=classic;html=1;rounded=0;fontSize=24;fontColor=#000000;" parent="2YYeZtI7_QjvNnfWtnuP-1" edge="1">
          <mxGeometry width="50" height="50" relative="1" as="geometry">
            <mxPoint x="408" y="4145" as="sourcePoint" />
            <mxPoint x="248" y="4145" as="targetPoint" />
          </mxGeometry>
        </mxCell>
        <mxCell id="xt_PsiV6YAQrIr_zFN4M-73" value="설치해 둔 드론이&lt;br&gt;파괴 되었을 때" style="text;html=1;align=center;verticalAlign=middle;resizable=0;points=[];autosize=1;strokeColor=none;fillColor=none;fontSize=24;fontColor=#000000;" parent="2YYeZtI7_QjvNnfWtnuP-1" vertex="1">
          <mxGeometry x="1421" y="4125" width="200" height="60" as="geometry" />
        </mxCell>
        <mxCell id="xt_PsiV6YAQrIr_zFN4M-74" value="몇번 플레이어의 드론인지 정보를 보내 줌" style="rounded=0;whiteSpace=wrap;html=1;shadow=0;glass=0;sketch=0;fontSize=24;fontColor=#000000;gradientColor=#ffffff;" parent="2YYeZtI7_QjvNnfWtnuP-1" vertex="1">
          <mxGeometry x="428" y="4175" width="980" height="60" as="geometry" />
        </mxCell>
        <mxCell id="xt_PsiV6YAQrIr_zFN4M-75" value="&lt;font color=&quot;#004c99&quot; size=&quot;1&quot;&gt;&lt;b style=&quot;font-size: 45px&quot;&gt;DRONE&lt;/b&gt;&lt;/font&gt;" style="endArrow=none;dashed=1;html=1;dashPattern=1 3;strokeWidth=2;rounded=0;fontSize=24;fontColor=#000000;fillColor=#0050ef;strokeColor=#001DBC;" parent="2YYeZtI7_QjvNnfWtnuP-1" edge="1">
          <mxGeometry width="50" height="50" relative="1" as="geometry">
            <mxPoint x="10" y="3745" as="sourcePoint" />
            <mxPoint x="1640" y="3745" as="targetPoint" />
          </mxGeometry>
        </mxCell>
        <mxCell id="xt_PsiV6YAQrIr_zFN4M-76" value="S2C_PLAYER_ALIVE" style="endArrow=classic;html=1;rounded=0;fontSize=24;fontColor=#000000;" parent="2YYeZtI7_QjvNnfWtnuP-1" edge="1">
          <mxGeometry width="50" height="50" relative="1" as="geometry">
            <mxPoint x="1412.5" y="3555" as="sourcePoint" />
            <mxPoint x="412.5" y="3555" as="targetPoint" />
          </mxGeometry>
        </mxCell>
        <mxCell id="xt_PsiV6YAQrIr_zFN4M-77" value="" style="endArrow=classic;html=1;rounded=0;fontSize=24;fontColor=#000000;" parent="2YYeZtI7_QjvNnfWtnuP-1" edge="1">
          <mxGeometry width="50" height="50" relative="1" as="geometry">
            <mxPoint x="405.5" y="3555" as="sourcePoint" />
            <mxPoint x="245.5" y="3555" as="targetPoint" />
          </mxGeometry>
        </mxCell>
        <mxCell id="xt_PsiV6YAQrIr_zFN4M-78" value="유저가 맞았을때 &lt;br&gt;HP 와&amp;nbsp; 유저가 &lt;br&gt;죽었을 때 상태 &lt;br&gt;및 살아났을 때 &lt;br&gt;위치를 보내줌" style="text;html=1;align=center;verticalAlign=middle;resizable=0;points=[];autosize=1;strokeColor=none;fillColor=none;fontSize=24;fontColor=#000000;" parent="2YYeZtI7_QjvNnfWtnuP-1" vertex="1">
          <mxGeometry x="1426" y="3445" width="190" height="150" as="geometry" />
        </mxCell>
        <mxCell id="xt_PsiV6YAQrIr_zFN4M-85" value="S2C_DRONE_SHOOT" style="endArrow=classic;html=1;rounded=0;fontSize=24;fontColor=#000000;" parent="2YYeZtI7_QjvNnfWtnuP-1" edge="1">
          <mxGeometry width="50" height="50" relative="1" as="geometry">
            <mxPoint x="1412" y="4295" as="sourcePoint" />
            <mxPoint x="412" y="4295" as="targetPoint" />
          </mxGeometry>
        </mxCell>
        <mxCell id="xt_PsiV6YAQrIr_zFN4M-86" value="" style="endArrow=classic;html=1;rounded=0;fontSize=24;fontColor=#000000;" parent="2YYeZtI7_QjvNnfWtnuP-1" edge="1">
          <mxGeometry width="50" height="50" relative="1" as="geometry">
            <mxPoint x="407" y="4295" as="sourcePoint" />
            <mxPoint x="247" y="4295" as="targetPoint" />
          </mxGeometry>
        </mxCell>
        <mxCell id="xt_PsiV6YAQrIr_zFN4M-87" value="&lt;div style=&quot;text-align: left&quot;&gt;총알 Type / 방향 Vector&lt;/div&gt;" style="rounded=0;whiteSpace=wrap;html=1;shadow=0;glass=0;sketch=0;fontSize=24;fontColor=#000000;gradientColor=#ffffff;" parent="2YYeZtI7_QjvNnfWtnuP-1" vertex="1">
          <mxGeometry x="427" y="4325" width="980" height="60" as="geometry" />
        </mxCell>
        <mxCell id="xt_PsiV6YAQrIr_zFN4M-88" value="드론이 몬스터를&lt;br&gt;공격할 때" style="text;html=1;align=center;verticalAlign=middle;resizable=0;points=[];autosize=1;strokeColor=none;fillColor=none;fontSize=24;fontColor=#000000;" parent="2YYeZtI7_QjvNnfWtnuP-1" vertex="1">
          <mxGeometry x="1426" y="4295" width="190" height="60" as="geometry" />
        </mxCell>
        <mxCell id="xt_PsiV6YAQrIr_zFN4M-89" value="&lt;font color=&quot;#004c99&quot;&gt;&lt;span style=&quot;font-size: 45px&quot;&gt;&lt;b&gt;MONSTER&lt;/b&gt;&lt;/span&gt;&lt;/font&gt;" style="endArrow=none;dashed=1;html=1;dashPattern=1 3;strokeWidth=2;rounded=0;fontSize=24;fontColor=#000000;fillColor=#0050ef;strokeColor=#001DBC;" parent="2YYeZtI7_QjvNnfWtnuP-1" edge="1">
          <mxGeometry width="50" height="50" relative="1" as="geometry">
            <mxPoint x="10" y="4475" as="sourcePoint" />
            <mxPoint x="1650" y="4475" as="targetPoint" />
          </mxGeometry>
        </mxCell>
        <mxCell id="xt_PsiV6YAQrIr_zFN4M-104" value="" style="rounded=1;whiteSpace=wrap;html=1;shadow=0;glass=0;sketch=0;fontSize=24;fontColor=#000000;gradientColor=#ffffff;fillColor=none;dashed=1;strokeWidth=5;strokeColor=#999900;" parent="2YYeZtI7_QjvNnfWtnuP-1" vertex="1">
          <mxGeometry x="236" y="4635" width="1190" height="160" as="geometry" />
        </mxCell>
        <mxCell id="xt_PsiV6YAQrIr_zFN4M-96" value="S2C_MONSTER_UPDATE" style="endArrow=classic;html=1;rounded=0;fontSize=24;fontColor=#000000;" parent="2YYeZtI7_QjvNnfWtnuP-1" edge="1">
          <mxGeometry width="50" height="50" relative="1" as="geometry">
            <mxPoint x="1412.5" y="4675" as="sourcePoint" />
            <mxPoint x="412.5" y="4675" as="targetPoint" />
          </mxGeometry>
        </mxCell>
        <mxCell id="xt_PsiV6YAQrIr_zFN4M-97" value="" style="endArrow=classic;html=1;rounded=0;fontSize=24;fontColor=#000000;" parent="2YYeZtI7_QjvNnfWtnuP-1" edge="1">
          <mxGeometry width="50" height="50" relative="1" as="geometry">
            <mxPoint x="405.5" y="4675" as="sourcePoint" />
            <mxPoint x="245.5" y="4675" as="targetPoint" />
          </mxGeometry>
        </mxCell>
        <mxCell id="xt_PsiV6YAQrIr_zFN4M-98" value="Monster 의 Position / 방향 Vector / Animation (Hit / Idle / Die ..)" style="rounded=0;whiteSpace=wrap;html=1;shadow=0;glass=0;sketch=0;fontSize=24;fontColor=#000000;gradientColor=#ffffff;" parent="2YYeZtI7_QjvNnfWtnuP-1" vertex="1">
          <mxGeometry x="429" y="4705" width="980" height="60" as="geometry" />
        </mxCell>
        <mxCell id="xt_PsiV6YAQrIr_zFN4M-105" value="&lt;b&gt;&lt;font color=&quot;#999900&quot; style=&quot;font-size: 36px&quot;&gt;LOOP&lt;/font&gt;&lt;/b&gt;" style="text;html=1;strokeColor=none;fillColor=none;align=center;verticalAlign=middle;whiteSpace=wrap;rounded=0;shadow=0;glass=0;dashed=1;sketch=0;fontSize=24;fontColor=#000000;" parent="2YYeZtI7_QjvNnfWtnuP-1" vertex="1">
          <mxGeometry x="776" y="4585" width="100" height="50" as="geometry" />
        </mxCell>
        <mxCell id="xt_PsiV6YAQrIr_zFN4M-106" value="몬스터의 행동&lt;br&gt;이벤트가 &lt;br&gt;발생 할 때" style="text;html=1;align=center;verticalAlign=middle;resizable=0;points=[];autosize=1;strokeColor=none;fillColor=none;fontSize=24;fontColor=#000000;" parent="2YYeZtI7_QjvNnfWtnuP-1" vertex="1">
          <mxGeometry x="1441" y="4635" width="170" height="90" as="geometry" />
        </mxCell>
        <mxCell id="n-X315men1zFw-0qJKVE-25" value="" style="rounded=1;whiteSpace=wrap;html=1;shadow=0;glass=0;sketch=0;fontSize=24;fontColor=#000000;gradientColor=#ffffff;fillColor=none;dashed=1;strokeWidth=5;strokeColor=#999900;" parent="2YYeZtI7_QjvNnfWtnuP-1" vertex="1">
          <mxGeometry x="236" y="890" width="1190" height="370" as="geometry" />
        </mxCell>
        <mxCell id="n-X315men1zFw-0qJKVE-26" value="&lt;b&gt;&lt;font color=&quot;#999900&quot; style=&quot;font-size: 36px&quot;&gt;LOOP&lt;/font&gt;&lt;/b&gt;" style="text;html=1;strokeColor=none;fillColor=none;align=center;verticalAlign=middle;whiteSpace=wrap;rounded=0;shadow=0;glass=0;dashed=1;sketch=0;fontSize=24;fontColor=#000000;" parent="2YYeZtI7_QjvNnfWtnuP-1" vertex="1">
          <mxGeometry x="776" y="840" width="100" height="50" as="geometry" />
        </mxCell>
        <mxCell id="xt_PsiV6YAQrIr_zFN4M-107" value="&lt;font color=&quot;#004c99&quot;&gt;&lt;span style=&quot;font-size: 45px&quot;&gt;&lt;b&gt;BOSS&lt;/b&gt;&lt;/span&gt;&lt;/font&gt;" style="endArrow=none;dashed=1;html=1;dashPattern=1 3;strokeWidth=2;rounded=0;fontSize=24;fontColor=#000000;fillColor=#0050ef;strokeColor=#001DBC;" parent="2YYeZtI7_QjvNnfWtnuP-1" edge="1">
          <mxGeometry width="50" height="50" relative="1" as="geometry">
            <mxPoint x="10" y="4935" as="sourcePoint" />
            <mxPoint x="1650" y="4935" as="targetPoint" />
          </mxGeometry>
        </mxCell>
        <mxCell id="xt_PsiV6YAQrIr_zFN4M-108" value="" style="rounded=1;whiteSpace=wrap;html=1;shadow=0;glass=0;sketch=0;fontSize=24;fontColor=#000000;gradientColor=#ffffff;fillColor=none;dashed=1;strokeWidth=5;strokeColor=#999900;" parent="2YYeZtI7_QjvNnfWtnuP-1" vertex="1">
          <mxGeometry x="236" y="5115" width="1190" height="160" as="geometry" />
        </mxCell>
        <mxCell id="xt_PsiV6YAQrIr_zFN4M-109" value="S2C_BOSS_UPDATE" style="endArrow=classic;html=1;rounded=0;fontSize=24;fontColor=#000000;" parent="2YYeZtI7_QjvNnfWtnuP-1" edge="1">
          <mxGeometry width="50" height="50" relative="1" as="geometry">
            <mxPoint x="1412.5" y="5155" as="sourcePoint" />
            <mxPoint x="412.5" y="5155" as="targetPoint" />
          </mxGeometry>
        </mxCell>
        <mxCell id="xt_PsiV6YAQrIr_zFN4M-110" value="" style="endArrow=classic;html=1;rounded=0;fontSize=24;fontColor=#000000;" parent="2YYeZtI7_QjvNnfWtnuP-1" edge="1">
          <mxGeometry width="50" height="50" relative="1" as="geometry">
            <mxPoint x="405.5" y="5155" as="sourcePoint" />
            <mxPoint x="245.5" y="5155" as="targetPoint" />
          </mxGeometry>
        </mxCell>
        <mxCell id="xt_PsiV6YAQrIr_zFN4M-111" value="BOSS 의 Position / 방향 Vector / Animation (Hit / Idle / Die ..)" style="rounded=0;whiteSpace=wrap;html=1;shadow=0;glass=0;sketch=0;fontSize=24;fontColor=#000000;gradientColor=#ffffff;" parent="2YYeZtI7_QjvNnfWtnuP-1" vertex="1">
          <mxGeometry x="429" y="5185" width="980" height="60" as="geometry" />
        </mxCell>
        <mxCell id="xt_PsiV6YAQrIr_zFN4M-112" value="&lt;b&gt;&lt;font color=&quot;#999900&quot; style=&quot;font-size: 36px&quot;&gt;LOOP&lt;/font&gt;&lt;/b&gt;" style="text;html=1;strokeColor=none;fillColor=none;align=center;verticalAlign=middle;whiteSpace=wrap;rounded=0;shadow=0;glass=0;dashed=1;sketch=0;fontSize=24;fontColor=#000000;" parent="2YYeZtI7_QjvNnfWtnuP-1" vertex="1">
          <mxGeometry x="776" y="5065" width="100" height="50" as="geometry" />
        </mxCell>
        <mxCell id="xt_PsiV6YAQrIr_zFN4M-113" value="보스의 행동&lt;br&gt;이벤트가 &lt;br&gt;발생 할 때" style="text;html=1;align=center;verticalAlign=middle;resizable=0;points=[];autosize=1;strokeColor=none;fillColor=none;fontSize=24;fontColor=#000000;" parent="2YYeZtI7_QjvNnfWtnuP-1" vertex="1">
          <mxGeometry x="1441" y="5105" width="140" height="90" as="geometry" />
        </mxCell>
        <mxCell id="xt_PsiV6YAQrIr_zFN4M-114" value="&lt;font color=&quot;#004c99&quot; size=&quot;1&quot;&gt;&lt;b style=&quot;font-size: 45px&quot;&gt;PLAYER&lt;/b&gt;&lt;/font&gt;" style="endArrow=none;dashed=1;html=1;dashPattern=1 3;strokeWidth=2;rounded=0;fontSize=24;fontColor=#000000;fillColor=#0050ef;strokeColor=#001DBC;" parent="2YYeZtI7_QjvNnfWtnuP-1" edge="1">
          <mxGeometry width="50" height="50" relative="1" as="geometry">
            <mxPoint x="10" y="590" as="sourcePoint" />
            <mxPoint x="1650" y="590" as="targetPoint" />
            <mxPoint as="offset" />
          </mxGeometry>
        </mxCell>
        <mxCell id="mRnFajhvc0NSTLZUKshr-0" value="C2S_PLAYER_DOOR_INTERACT_REQ" style="endArrow=classic;html=1;rounded=0;fontSize=24;fontColor=#000000;strokeColor=#000000;" parent="2YYeZtI7_QjvNnfWtnuP-1" edge="1">
          <mxGeometry x="0.001" width="50" height="50" relative="1" as="geometry">
            <mxPoint x="419" y="3005" as="sourcePoint" />
            <mxPoint x="1410" y="3005" as="targetPoint" />
            <mxPoint as="offset" />
          </mxGeometry>
        </mxCell>
        <mxCell id="mRnFajhvc0NSTLZUKshr-2" value="플레이어가&lt;br&gt;문과 상호작용&lt;br&gt;&amp;nbsp;했을 때" style="text;html=1;align=center;verticalAlign=middle;resizable=0;points=[];autosize=1;strokeColor=none;fillColor=none;fontSize=24;fontColor=#000000;" parent="2YYeZtI7_QjvNnfWtnuP-1" vertex="1">
          <mxGeometry x="66" y="2980" width="170" height="90" as="geometry" />
        </mxCell>
        <mxCell id="mRnFajhvc0NSTLZUKshr-3" value="" style="endArrow=classic;html=1;rounded=0;fontSize=24;fontColor=#000000;" parent="2YYeZtI7_QjvNnfWtnuP-1" edge="1">
          <mxGeometry width="50" height="50" relative="1" as="geometry">
            <mxPoint x="249.5" y="3005" as="sourcePoint" />
            <mxPoint x="409.5" y="3005" as="targetPoint" />
          </mxGeometry>
        </mxCell>
        <mxCell id="mRnFajhvc0NSTLZUKshr-4" value="S2C_PLAYER_DOOR_INTERACT_RES" style="endArrow=classic;html=1;rounded=0;fontSize=24;fontColor=#000000;" parent="2YYeZtI7_QjvNnfWtnuP-1" edge="1">
          <mxGeometry width="50" height="50" relative="1" as="geometry">
            <mxPoint x="1414.5" y="3045" as="sourcePoint" />
            <mxPoint x="414.5" y="3045" as="targetPoint" />
          </mxGeometry>
        </mxCell>
        <mxCell id="mRnFajhvc0NSTLZUKshr-5" value="" style="endArrow=classic;html=1;rounded=0;fontSize=24;fontColor=#000000;" parent="2YYeZtI7_QjvNnfWtnuP-1" edge="1">
          <mxGeometry width="50" height="50" relative="1" as="geometry">
            <mxPoint x="407.5" y="3045" as="sourcePoint" />
            <mxPoint x="247.5" y="3045" as="targetPoint" />
          </mxGeometry>
        </mxCell>
        <mxCell id="mRnFajhvc0NSTLZUKshr-6" value="Door의 개폐 가능 여부" style="rounded=0;whiteSpace=wrap;html=1;shadow=0;glass=0;sketch=0;fontSize=24;fontColor=#000000;gradientColor=#ffffff;" parent="2YYeZtI7_QjvNnfWtnuP-1" vertex="1">
          <mxGeometry x="425" y="3075" width="970" height="60" as="geometry" />
        </mxCell>
        <mxCell id="mRnFajhvc0NSTLZUKshr-9" value="S2C_DOOR_DESTROY" style="endArrow=classic;html=1;rounded=0;fontSize=24;fontColor=#000000;" parent="2YYeZtI7_QjvNnfWtnuP-1" edge="1">
          <mxGeometry width="50" height="50" relative="1" as="geometry">
            <mxPoint x="1414.5" y="3175" as="sourcePoint" />
            <mxPoint x="414.5" y="3175" as="targetPoint" />
          </mxGeometry>
        </mxCell>
        <mxCell id="mRnFajhvc0NSTLZUKshr-10" value="" style="endArrow=classic;html=1;rounded=0;fontSize=24;fontColor=#000000;" parent="2YYeZtI7_QjvNnfWtnuP-1" edge="1">
          <mxGeometry width="50" height="50" relative="1" as="geometry">
            <mxPoint x="407.5" y="3175" as="sourcePoint" />
            <mxPoint x="247.5" y="3175" as="targetPoint" />
          </mxGeometry>
        </mxCell>
        <mxCell id="mRnFajhvc0NSTLZUKshr-11" value="문 HP가 다 &lt;br&gt;닳았을 때" style="text;html=1;align=center;verticalAlign=middle;resizable=0;points=[];autosize=1;strokeColor=none;fillColor=none;fontSize=24;fontColor=#000000;" parent="2YYeZtI7_QjvNnfWtnuP-1" vertex="1">
          <mxGeometry x="1426" y="3145" width="130" height="60" as="geometry" />
        </mxCell>
        <mxCell id="mRnFajhvc0NSTLZUKshr-12" value="C2S_PLAYER_DOOR_UPGRADE_REQ" style="endArrow=classic;html=1;rounded=0;fontSize=24;fontColor=#000000;strokeColor=#000000;" parent="2YYeZtI7_QjvNnfWtnuP-1" edge="1">
          <mxGeometry x="0.001" width="50" height="50" relative="1" as="geometry">
            <mxPoint x="419" y="3220" as="sourcePoint" />
            <mxPoint x="1410" y="3220" as="targetPoint" />
            <mxPoint as="offset" />
          </mxGeometry>
        </mxCell>
        <mxCell id="mRnFajhvc0NSTLZUKshr-13" value="문을 강화 했을 때" style="text;html=1;align=center;verticalAlign=middle;resizable=0;points=[];autosize=1;strokeColor=none;fillColor=none;fontSize=24;fontColor=#000000;" parent="2YYeZtI7_QjvNnfWtnuP-1" vertex="1">
          <mxGeometry x="26" y="3205" width="200" height="30" as="geometry" />
        </mxCell>
        <mxCell id="mRnFajhvc0NSTLZUKshr-14" value="" style="endArrow=classic;html=1;rounded=0;fontSize=24;fontColor=#000000;" parent="2YYeZtI7_QjvNnfWtnuP-1" edge="1">
          <mxGeometry width="50" height="50" relative="1" as="geometry">
            <mxPoint x="249.5" y="3220" as="sourcePoint" />
            <mxPoint x="409.5" y="3220" as="targetPoint" />
          </mxGeometry>
        </mxCell>
        <mxCell id="mRnFajhvc0NSTLZUKshr-15" value="S2C_PLAYER_DOOR_UPGRADE_RES" style="endArrow=classic;html=1;rounded=0;fontSize=24;fontColor=#000000;" parent="2YYeZtI7_QjvNnfWtnuP-1" edge="1">
          <mxGeometry width="50" height="50" relative="1" as="geometry">
            <mxPoint x="1414.5" y="3340" as="sourcePoint" />
            <mxPoint x="414.5" y="3340" as="targetPoint" />
          </mxGeometry>
        </mxCell>
        <mxCell id="mRnFajhvc0NSTLZUKshr-16" value="" style="endArrow=classic;html=1;rounded=0;fontSize=24;fontColor=#000000;" parent="2YYeZtI7_QjvNnfWtnuP-1" edge="1">
          <mxGeometry width="50" height="50" relative="1" as="geometry">
            <mxPoint x="407.5" y="3340" as="sourcePoint" />
            <mxPoint x="247.5" y="3340" as="targetPoint" />
          </mxGeometry>
        </mxCell>
        <mxCell id="mRnFajhvc0NSTLZUKshr-17" value="Door의 개폐 가능 여부" style="rounded=0;whiteSpace=wrap;html=1;shadow=0;glass=0;sketch=0;fontSize=24;fontColor=#000000;gradientColor=#ffffff;" parent="2YYeZtI7_QjvNnfWtnuP-1" vertex="1">
          <mxGeometry x="425" y="3370" width="970" height="60" as="geometry" />
        </mxCell>
        <mxCell id="mRnFajhvc0NSTLZUKshr-18" value="문의 강화 Type" style="rounded=0;whiteSpace=wrap;html=1;shadow=0;glass=0;sketch=0;fontSize=24;fontColor=#000000;gradientColor=#ffffff;" parent="2YYeZtI7_QjvNnfWtnuP-1" vertex="1">
          <mxGeometry x="427" y="3245" width="970" height="60" as="geometry" />
        </mxCell>
        <mxCell id="2vnw9VDdkCKz-aLqVxuy-0" value="" style="rounded=1;whiteSpace=wrap;html=1;shadow=0;glass=0;sketch=0;fontSize=24;fontColor=#000000;gradientColor=#ffffff;fillColor=none;dashed=1;strokeWidth=5;strokeColor=#999900;" parent="2YYeZtI7_QjvNnfWtnuP-1" vertex="1">
          <mxGeometry x="232" y="350" width="1190" height="150" as="geometry" />
        </mxCell>
        <mxCell id="2vnw9VDdkCKz-aLqVxuy-1" value="&lt;b&gt;&lt;font color=&quot;#999900&quot; style=&quot;font-size: 36px&quot;&gt;LOOP&lt;/font&gt;&lt;/b&gt;" style="text;html=1;strokeColor=none;fillColor=none;align=center;verticalAlign=middle;whiteSpace=wrap;rounded=0;shadow=0;glass=0;dashed=1;sketch=0;fontSize=24;fontColor=#000000;" parent="2YYeZtI7_QjvNnfWtnuP-1" vertex="1">
          <mxGeometry x="777" y="300" width="100" height="50" as="geometry" />
        </mxCell>
        <mxCell id="1Cm00X_s05C84BwrtIaW-0" value="&lt;span style=&quot;color: rgb(0 , 0 , 0)&quot;&gt;C2S_KEEP_ALIVE_CHECK_RES&lt;/span&gt;" style="endArrow=classic;html=1;rounded=0;fontSize=24;fontColor=#4D9900;" parent="2YYeZtI7_QjvNnfWtnuP-1" edge="1">
          <mxGeometry width="50" height="50" relative="1" as="geometry">
            <mxPoint x="418" y="450" as="sourcePoint" />
            <mxPoint x="1408" y="450" as="targetPoint" />
          </mxGeometry>
        </mxCell>
        <mxCell id="1Cm00X_s05C84BwrtIaW-1" value="S2C_KEEP_ALIVE_CHECK_REQ" style="endArrow=classic;html=1;rounded=0;fontSize=24;fontColor=#000000;" parent="2YYeZtI7_QjvNnfWtnuP-1" edge="1">
          <mxGeometry width="50" height="50" relative="1" as="geometry">
            <mxPoint x="1411" y="400" as="sourcePoint" />
            <mxPoint x="411" y="400" as="targetPoint" />
          </mxGeometry>
        </mxCell>
        <mxCell id="1Cm00X_s05C84BwrtIaW-2" value="" style="endArrow=classic;html=1;rounded=0;fontSize=24;fontColor=#000000;" parent="2YYeZtI7_QjvNnfWtnuP-1" edge="1">
          <mxGeometry width="50" height="50" relative="1" as="geometry">
            <mxPoint x="404" y="400" as="sourcePoint" />
            <mxPoint x="244" y="400" as="targetPoint" />
          </mxGeometry>
        </mxCell>
        <mxCell id="1Cm00X_s05C84BwrtIaW-3" value="" style="endArrow=classic;html=1;rounded=0;fontSize=24;fontColor=#000000;" parent="2YYeZtI7_QjvNnfWtnuP-1" edge="1">
          <mxGeometry width="50" height="50" relative="1" as="geometry">
            <mxPoint x="248" y="450" as="sourcePoint" />
            <mxPoint x="408" y="450" as="targetPoint" />
          </mxGeometry>
        </mxCell>
        <mxCell id="SFth2Qw6vUBt7bKvFxrC-0" value="플레이어가 &lt;br&gt;정상연결인지&lt;br&gt;일정 주기로 확인" style="text;html=1;align=center;verticalAlign=middle;resizable=0;points=[];autosize=1;strokeColor=none;fillColor=none;fontSize=24;" parent="2YYeZtI7_QjvNnfWtnuP-1" vertex="1">
          <mxGeometry x="16" y="350" width="200" height="90" as="geometry" />
        </mxCell>
        <mxCell id="Af4c4JvIBLrSjhD9kvIv-0" value="&lt;font color=&quot;#000000&quot;&gt;TCP Connect&lt;/font&gt;" style="endArrow=classic;html=1;rounded=0;fontSize=24;fontColor=#4D9900;" parent="2YYeZtI7_QjvNnfWtnuP-1" edge="1">
          <mxGeometry width="50" height="50" relative="1" as="geometry">
            <mxPoint x="421" y="250" as="sourcePoint" />
            <mxPoint x="1411" y="250" as="targetPoint" />
          </mxGeometry>
        </mxCell>
        <mxCell id="Af4c4JvIBLrSjhD9kvIv-1" value="" style="endArrow=classic;html=1;rounded=0;fontSize=24;fontColor=#000000;" parent="2YYeZtI7_QjvNnfWtnuP-1" edge="1">
          <mxGeometry width="50" height="50" relative="1" as="geometry">
            <mxPoint x="251" y="250" as="sourcePoint" />
            <mxPoint x="411" y="250" as="targetPoint" />
          </mxGeometry>
        </mxCell>
        <mxCell id="9a23GTRQbM9kztSjVhef-0" value="유저가 공격으로&lt;br&gt;자원을 다 캤을 때" style="text;html=1;align=center;verticalAlign=middle;resizable=0;points=[];autosize=1;strokeColor=none;fillColor=none;fontSize=24;fontColor=#000000;" vertex="1" parent="2YYeZtI7_QjvNnfWtnuP-1">
          <mxGeometry x="1426" y="1810" width="200" height="60" as="geometry" />
        </mxCell>
        <mxCell id="9a23GTRQbM9kztSjVhef-1" value="추가 된 현재 총 Mana(자원)량, 해당 자원이 다 소모 되었음을 알려주는 플래그" style="rounded=0;whiteSpace=wrap;html=1;shadow=0;glass=0;sketch=0;fontSize=24;fontColor=#000000;gradientColor=#ffffff;" vertex="1" parent="2YYeZtI7_QjvNnfWtnuP-1">
          <mxGeometry x="426" y="1870" width="980" height="60" as="geometry" />
        </mxCell>
      </root>
    </mxGraphModel>
  </diagram>
  <diagram id="yCIsusow0bGQTqvhZK9H" name="Lobby-GameServer(J,K)">
    <mxGraphModel dx="2062" dy="1122" grid="1" gridSize="10" guides="1" tooltips="1" connect="1" arrows="1" fold="1" page="1" pageScale="1" pageWidth="1654" pageHeight="2336" math="0" shadow="0">
      <root>
        <mxCell id="oQcvuUWi5S6YblD39Hco-0" />
        <mxCell id="oQcvuUWi5S6YblD39Hco-1" parent="oQcvuUWi5S6YblD39Hco-0" />
        <mxCell id="36vC7kzD5IYzZyF9iu_K-5" value="K" style="edgeStyle=orthogonalEdgeStyle;rounded=0;orthogonalLoop=1;jettySize=auto;html=1;exitX=0;exitY=0.75;exitDx=0;exitDy=0;entryX=1;entryY=0.75;entryDx=0;entryDy=0;fontSize=24;" parent="oQcvuUWi5S6YblD39Hco-1" source="VXP0VpDoz92hIBzV0hz3-1" target="VXP0VpDoz92hIBzV0hz3-3" edge="1">
          <mxGeometry relative="1" as="geometry" />
        </mxCell>
        <mxCell id="VXP0VpDoz92hIBzV0hz3-1" value="Lobby Server" style="whiteSpace=wrap;html=1;aspect=fixed;fontStyle=1;fontSize=24;rounded=1;fillColor=#f8cecc;strokeColor=#b85450;gradientColor=#ffffff;" parent="oQcvuUWi5S6YblD39Hco-1" vertex="1">
          <mxGeometry x="1270" y="60" width="140" height="140" as="geometry" />
        </mxCell>
        <mxCell id="36vC7kzD5IYzZyF9iu_K-4" value="J" style="edgeStyle=orthogonalEdgeStyle;rounded=0;orthogonalLoop=1;jettySize=auto;html=1;exitX=1;exitY=0.25;exitDx=0;exitDy=0;entryX=0;entryY=0.25;entryDx=0;entryDy=0;fontSize=24;" parent="oQcvuUWi5S6YblD39Hco-1" source="VXP0VpDoz92hIBzV0hz3-3" target="VXP0VpDoz92hIBzV0hz3-1" edge="1">
          <mxGeometry relative="1" as="geometry" />
        </mxCell>
        <mxCell id="VXP0VpDoz92hIBzV0hz3-3" value="Game Server" style="whiteSpace=wrap;html=1;aspect=fixed;fontStyle=1;fontSize=24;rounded=1;fillColor=#f8cecc;strokeColor=#b85450;gradientColor=#ffffff;" parent="oQcvuUWi5S6YblD39Hco-1" vertex="1">
          <mxGeometry x="250" y="60" width="140" height="140" as="geometry" />
        </mxCell>
        <mxCell id="BjPRGbR58oHdKlG409V7-0" value="" style="endArrow=none;html=1;rounded=0;entryX=0.5;entryY=1;entryDx=0;entryDy=0;" parent="oQcvuUWi5S6YblD39Hco-1" edge="1">
          <mxGeometry width="50" height="50" relative="1" as="geometry">
            <mxPoint x="317" y="2320" as="sourcePoint" />
            <mxPoint x="317" y="200" as="targetPoint" />
          </mxGeometry>
        </mxCell>
        <mxCell id="BjPRGbR58oHdKlG409V7-1" value="" style="endArrow=none;html=1;rounded=0;entryX=0.5;entryY=1;entryDx=0;entryDy=0;" parent="oQcvuUWi5S6YblD39Hco-1" edge="1">
          <mxGeometry width="50" height="50" relative="1" as="geometry">
            <mxPoint x="1336.5" y="2320" as="sourcePoint" />
            <mxPoint x="1336.5" y="200" as="targetPoint" />
          </mxGeometry>
        </mxCell>
        <mxCell id="ppXTH-gce9gtOyRYY1U6-0" value="TCP Connect" style="endArrow=classic;html=1;rounded=0;fontSize=24;" parent="oQcvuUWi5S6YblD39Hco-1" edge="1">
          <mxGeometry width="50" height="50" relative="1" as="geometry">
            <mxPoint x="320" y="470" as="sourcePoint" />
            <mxPoint x="1330" y="470" as="targetPoint" />
          </mxGeometry>
        </mxCell>
        <mxCell id="xrSR1ZKPII0hgh6zyACR-0" value="S2C_LOBBY_CONFIRM_REQ" style="endArrow=classic;html=1;rounded=0;fontSize=24;" parent="oQcvuUWi5S6YblD39Hco-1" edge="1">
          <mxGeometry width="50" height="50" relative="1" as="geometry">
            <mxPoint x="1330" y="530" as="sourcePoint" />
            <mxPoint x="320" y="530" as="targetPoint" />
          </mxGeometry>
        </mxCell>
        <mxCell id="xrSR1ZKPII0hgh6zyACR-1" value="C2S_LOBBY_CONFIRM_RES" style="endArrow=classic;html=1;rounded=0;fontSize=24;" parent="oQcvuUWi5S6YblD39Hco-1" edge="1">
          <mxGeometry width="50" height="50" relative="1" as="geometry">
            <mxPoint x="322" y="670" as="sourcePoint" />
            <mxPoint x="1332" y="670" as="targetPoint" />
          </mxGeometry>
        </mxCell>
        <mxCell id="xrSR1ZKPII0hgh6zyACR-2" value="Lobby 에서 시작을 &lt;br&gt;눌렀을 때" style="text;html=1;align=center;verticalAlign=middle;resizable=0;points=[];autosize=1;strokeColor=none;fillColor=none;fontSize=24;" parent="oQcvuUWi5S6YblD39Hco-1" vertex="1">
          <mxGeometry x="1350" y="500" width="210" height="60" as="geometry" />
        </mxCell>
        <mxCell id="_RSVh1_3S892bArjRQ0a-0" value="Lobby에서 연결이 성사 된 유저(들)의 정보" style="rounded=0;whiteSpace=wrap;html=1;fontSize=24;" parent="oQcvuUWi5S6YblD39Hco-1" vertex="1">
          <mxGeometry x="357" y="560" width="940" height="60" as="geometry" />
        </mxCell>
        <mxCell id="_RSVh1_3S892bArjRQ0a-1" value="전달 받은 유저(들)의&lt;br&gt;게임 서버 연결이&lt;br&gt;정상적으로 동작시" style="text;html=1;align=center;verticalAlign=middle;resizable=0;points=[];autosize=1;strokeColor=none;fillColor=none;fontSize=24;" parent="oQcvuUWi5S6YblD39Hco-1" vertex="1">
          <mxGeometry x="70" y="630" width="240" height="90" as="geometry" />
        </mxCell>
        <mxCell id="gtfZnXypgfjJnVO9sWPd-0" value="" style="rounded=1;whiteSpace=wrap;html=1;shadow=0;glass=0;sketch=0;fontSize=24;fontColor=#000000;gradientColor=#ffffff;fillColor=none;dashed=1;strokeWidth=5;strokeColor=#999900;" parent="oQcvuUWi5S6YblD39Hco-1" vertex="1">
          <mxGeometry x="310" y="250" width="1040" height="150" as="geometry" />
        </mxCell>
        <mxCell id="_RSVh1_3S892bArjRQ0a-2" value="&lt;font color=&quot;#b5739d&quot;&gt;Login 서버로 유저&lt;br&gt;상태를 업데이트&lt;/font&gt;" style="text;html=1;align=center;verticalAlign=middle;resizable=0;points=[];autosize=1;strokeColor=none;fillColor=none;fontSize=24;" parent="oQcvuUWi5S6YblD39Hco-1" vertex="1">
          <mxGeometry x="1350" y="645" width="210" height="60" as="geometry" />
        </mxCell>
        <mxCell id="gtfZnXypgfjJnVO9sWPd-1" value="&lt;b&gt;&lt;font color=&quot;#999900&quot; style=&quot;font-size: 36px&quot;&gt;LOOP&lt;/font&gt;&lt;/b&gt;" style="text;html=1;strokeColor=none;fillColor=none;align=center;verticalAlign=middle;whiteSpace=wrap;rounded=0;shadow=0;glass=0;dashed=1;sketch=0;fontSize=24;fontColor=#000000;" parent="oQcvuUWi5S6YblD39Hco-1" vertex="1">
          <mxGeometry x="777" y="200" width="100" height="50" as="geometry" />
        </mxCell>
        <mxCell id="gtfZnXypgfjJnVO9sWPd-2" value="&lt;span style=&quot;color: rgb(0 , 0 , 0)&quot;&gt;C2S_KEEP_ALIVE_CHECK_RES&lt;/span&gt;" style="endArrow=classic;html=1;rounded=0;fontSize=24;fontColor=#4D9900;" parent="oQcvuUWi5S6YblD39Hco-1" edge="1">
          <mxGeometry width="50" height="50" relative="1" as="geometry">
            <mxPoint x="320" y="350" as="sourcePoint" />
            <mxPoint x="1330" y="350" as="targetPoint" />
          </mxGeometry>
        </mxCell>
        <mxCell id="gtfZnXypgfjJnVO9sWPd-3" value="S2C_KEEP_ALIVE_CHECK_REQ" style="endArrow=classic;html=1;rounded=0;fontSize=24;fontColor=#000000;" parent="oQcvuUWi5S6YblD39Hco-1" edge="1">
          <mxGeometry width="50" height="50" relative="1" as="geometry">
            <mxPoint x="1330" y="300" as="sourcePoint" />
            <mxPoint x="320" y="300" as="targetPoint" />
          </mxGeometry>
        </mxCell>
        <mxCell id="gtfZnXypgfjJnVO9sWPd-6" value="게임 서버가 &lt;br&gt;정상연결인지&lt;br&gt;일정 주기로 확인" style="text;html=1;align=center;verticalAlign=middle;resizable=0;points=[];autosize=1;strokeColor=none;fillColor=none;fontSize=24;" parent="oQcvuUWi5S6YblD39Hco-1" vertex="1">
          <mxGeometry x="90" y="250" width="200" height="90" as="geometry" />
        </mxCell>
      </root>
    </mxGraphModel>
  </diagram>
</mxfile>